<?xml version="1.0" encoding="utf-8"?>
<!-- Generator: Adobe Illustrator 19.0.1, SVG Export Plug-In . SVG Version: 6.00 Build 0)  -->
<svg version="1.1" id="Layer_1" xmlns="http://www.w3.org/2000/svg" xmlns:xlink="http://www.w3.org/1999/xlink" x="0px" y="0px"
	 viewBox="0 0 50 50" enable-background="new 0 0 50 50" xml:space="preserve">
<g opacity="0">
	<rect fill="#FFFFFF" width="50" height="50"/>
</g>
<g>
	<g>
		<rect x="3.7" y="31.8" fill="#BCBEC0" width="10.6" height="3.5"/>
	</g>
	<g>
		<rect x="35.6" y="31.8" fill="#939598" width="10.6" height="3.5"/>
	</g>
	<g>
		<rect x="19.6" y="31.8" fill="#A7A9AC" width="10.6" height="3.5"/>
	</g>
	<g>
		<path fill="#D1D3D4" d="M30.3,31.8h-1.8c0-3.9-3.2-7.1-7.1-7.1c-3.9,0-7.1,3.2-7.1,7.1h-1.8c0-4.9,4-8.9,8.9-8.9
			C26.3,22.9,30.3,26.9,30.3,31.8z"/>
	</g>
	<g>
		<path fill="#D1D3D4" d="M37.4,31.8h-1.8c0-3.9-3.2-7.1-7.1-7.1s-7.1,3.2-7.1,7.1h-1.8c0-4.9,4-8.9,8.9-8.9S37.4,26.9,37.4,31.8z"
			/>
	</g>
	<g>
		<path fill="#D1D3D4" d="M42.7,31.8h-3.6c0-7.8-6.4-14.2-14.2-14.2c-7.8,0-14.2,6.4-14.2,14.2H7.2c0-9.8,7.9-17.7,17.7-17.7
			S42.7,22,42.7,31.8z"/>
	</g>
</g>
</svg>
