<?xml version="1.0" encoding="utf-8"?>
<!-- Generator: Adobe Illustrator 19.0.1, SVG Export Plug-In . SVG Version: 6.00 Build 0)  -->
<svg version="1.1" id="Layer_1" xmlns="http://www.w3.org/2000/svg" xmlns:xlink="http://www.w3.org/1999/xlink" x="0px" y="0px"
	 viewBox="0 0 50 50" enable-background="new 0 0 50 50" xml:space="preserve">
<g opacity="0">
	<rect fill="#FFFFFF" width="50" height="50"/>
</g>
<g>
	<rect x="4.2" y="14.5" fill="#D1D3D4" width="6.1" height="28.3"/>
</g>
<g>
	<rect x="40.7" y="7.4" fill="#D1D3D4" width="6.1" height="28.3"/>
</g>
<g>
	<g>
		<defs>
			<line id="SVGID_1_" x1="4.2" y1="21.6" x2="46.7" y2="21.6"/>
		</defs>
		<clipPath id="SVGID_2_">
			<use xlink:href="#SVGID_1_"  overflow="visible"/>
		</clipPath>
		<path clip-path="url(#SVGID_2_)" fill="#FFFFFF" d="M4.2,21.6L4.2,21.6L4.2,21.6z"/>
		<path clip-path="url(#SVGID_2_)" fill="#FFFFFF" d="M4.4,21.6L4.4,21.6L4.4,21.6z"/>
		<path clip-path="url(#SVGID_2_)" fill="#FDFDFD" d="M4.6,21.6L4.6,21.6L4.6,21.6z"/>
		<path clip-path="url(#SVGID_2_)" fill="#FCFCFC" d="M4.7,21.6L4.7,21.6L4.7,21.6z"/>
		<path clip-path="url(#SVGID_2_)" fill="#FAFBFB" d="M4.9,21.6L4.9,21.6L4.9,21.6z"/>
		<path clip-path="url(#SVGID_2_)" fill="#F9F9FA" d="M5.1,21.6L5.1,21.6L5.1,21.6z"/>
		<path clip-path="url(#SVGID_2_)" fill="#F8F8F9" d="M5.2,21.6L5.2,21.6L5.2,21.6z"/>
		<path clip-path="url(#SVGID_2_)" fill="#F7F7F8" d="M5.4,21.6L5.4,21.6L5.4,21.6z"/>
		<path clip-path="url(#SVGID_2_)" fill="#F6F6F7" d="M5.6,21.6L5.6,21.6L5.6,21.6z"/>
		<path clip-path="url(#SVGID_2_)" fill="#F5F6F6" d="M5.7,21.6L5.7,21.6L5.7,21.6z"/>
		<path clip-path="url(#SVGID_2_)" fill="#F4F5F5" d="M5.9,21.6L5.9,21.6L5.9,21.6z"/>
		<path clip-path="url(#SVGID_2_)" fill="#F3F4F4" d="M6.1,21.6L6.1,21.6L6.1,21.6z"/>
		<path clip-path="url(#SVGID_2_)" fill="#F3F3F3" d="M6.2,21.6L6.2,21.6L6.2,21.6z"/>
		<path clip-path="url(#SVGID_2_)" fill="#F2F2F3" d="M6.4,21.6L6.4,21.6L6.4,21.6z"/>
		<path clip-path="url(#SVGID_2_)" fill="#F1F1F2" d="M6.6,21.6L6.6,21.6L6.6,21.6z"/>
		<path clip-path="url(#SVGID_2_)" fill="#F0F0F1" d="M6.7,21.6L6.7,21.6L6.7,21.6z"/>
		<path clip-path="url(#SVGID_2_)" fill="#EFF0F0" d="M6.9,21.6L6.9,21.6L6.9,21.6z"/>
		<path clip-path="url(#SVGID_2_)" fill="#EEEFF0" d="M7.1,21.6L7.1,21.6L7.1,21.6z"/>
		<path clip-path="url(#SVGID_2_)" fill="#EDEEEF" d="M7.2,21.6L7.2,21.6L7.2,21.6z"/>
		<path clip-path="url(#SVGID_2_)" fill="#EDEDEE" d="M7.4,21.6L7.4,21.6L7.4,21.6z"/>
		<path clip-path="url(#SVGID_2_)" fill="#ECECED" d="M7.6,21.6L7.6,21.6L7.6,21.6z"/>
		<path clip-path="url(#SVGID_2_)" fill="#EBECEC" d="M7.7,21.6L7.7,21.6L7.7,21.6z"/>
		<path clip-path="url(#SVGID_2_)" fill="#EAEBEC" d="M7.9,21.6L7.9,21.6L7.9,21.6z"/>
		<path clip-path="url(#SVGID_2_)" fill="#E9EAEB" d="M8.1,21.6L8.1,21.6L8.1,21.6z"/>
		<path clip-path="url(#SVGID_2_)" fill="#E8E9EA" d="M8.2,21.6L8.2,21.6L8.2,21.6z"/>
		<path clip-path="url(#SVGID_2_)" fill="#E8E8E9" d="M8.4,21.6L8.4,21.6L8.4,21.6z"/>
		<path clip-path="url(#SVGID_2_)" fill="#E7E7E8" d="M8.6,21.6L8.6,21.6L8.6,21.6z"/>
		<path clip-path="url(#SVGID_2_)" fill="#E6E7E8" d="M8.7,21.6L8.7,21.6L8.7,21.6z"/>
		<path clip-path="url(#SVGID_2_)" fill="#E5E6E7" d="M8.9,21.6L8.9,21.6L8.9,21.6z"/>
		<path clip-path="url(#SVGID_2_)" fill="#E4E5E6" d="M9.1,21.6L9.1,21.6L9.1,21.6z"/>
		<path clip-path="url(#SVGID_2_)" fill="#E3E4E5" d="M9.2,21.6L9.2,21.6L9.2,21.6z"/>
		<path clip-path="url(#SVGID_2_)" fill="#E2E3E5" d="M9.4,21.6L9.4,21.6L9.4,21.6z"/>
		<path clip-path="url(#SVGID_2_)" fill="#E2E3E4" d="M9.6,21.6L9.6,21.6L9.6,21.6z"/>
		<path clip-path="url(#SVGID_2_)" fill="#E1E2E3" d="M9.7,21.6L9.7,21.6L9.7,21.6z"/>
		<path clip-path="url(#SVGID_2_)" fill="#E0E1E2" d="M9.9,21.6L9.9,21.6L9.9,21.6z"/>
		<path clip-path="url(#SVGID_2_)" fill="#DFE0E1" d="M10.1,21.6L10.1,21.6L10.1,21.6z"/>
		<path clip-path="url(#SVGID_2_)" fill="#DEDFE1" d="M10.2,21.6L10.2,21.6L10.2,21.6z"/>
		<path clip-path="url(#SVGID_2_)" fill="#DDDFE0" d="M10.4,21.6L10.4,21.6L10.4,21.6z"/>
		<path clip-path="url(#SVGID_2_)" fill="#DDDEDF" d="M10.6,21.6L10.6,21.6L10.6,21.6z"/>
		<path clip-path="url(#SVGID_2_)" fill="#DCDDDE" d="M10.7,21.6L10.7,21.6L10.7,21.6z"/>
		<path clip-path="url(#SVGID_2_)" fill="#DBDCDE" d="M10.9,21.6L10.9,21.6L10.9,21.6z"/>
		<path clip-path="url(#SVGID_2_)" fill="#DADBDD" d="M11.1,21.6L11.1,21.6L11.1,21.6z"/>
		<path clip-path="url(#SVGID_2_)" fill="#D9DBDC" d="M11.2,21.6L11.2,21.6L11.2,21.6z"/>
		<path clip-path="url(#SVGID_2_)" fill="#D9DADB" d="M11.4,21.6L11.4,21.6L11.4,21.6z"/>
		<path clip-path="url(#SVGID_2_)" fill="#D8D9DA" d="M11.6,21.6L11.6,21.6L11.6,21.6z"/>
		<path clip-path="url(#SVGID_2_)" fill="#D7D8DA" d="M11.7,21.6L11.7,21.6L11.7,21.6z"/>
		<path clip-path="url(#SVGID_2_)" fill="#D6D7D9" d="M11.9,21.6L11.9,21.6L11.9,21.6z"/>
		<path clip-path="url(#SVGID_2_)" fill="#D5D7D8" d="M12.1,21.6L12.1,21.6L12.1,21.6z"/>
		<path clip-path="url(#SVGID_2_)" fill="#D4D6D7" d="M12.2,21.6L12.2,21.6L12.2,21.6z"/>
		<path clip-path="url(#SVGID_2_)" fill="#D4D5D6" d="M12.4,21.6L12.4,21.6L12.4,21.6z"/>
		<path clip-path="url(#SVGID_2_)" fill="#D3D4D6" d="M12.6,21.6L12.6,21.6L12.6,21.6z"/>
		<path clip-path="url(#SVGID_2_)" fill="#D2D3D5" d="M12.7,21.6L12.7,21.6L12.7,21.6z"/>
		<path clip-path="url(#SVGID_2_)" fill="#D1D2D4" d="M12.9,21.6L12.9,21.6L12.9,21.6z"/>
		<path clip-path="url(#SVGID_2_)" fill="#D0D2D3" d="M13.1,21.6L13.1,21.6L13.1,21.6z"/>
		<path clip-path="url(#SVGID_2_)" fill="#CFD1D3" d="M13.2,21.6L13.2,21.6L13.2,21.6z"/>
		<path clip-path="url(#SVGID_2_)" fill="#CFD0D2" d="M13.4,21.6L13.4,21.6L13.4,21.6z"/>
		<path clip-path="url(#SVGID_2_)" fill="#CECFD1" d="M13.6,21.6L13.6,21.6L13.6,21.6z"/>
		<path clip-path="url(#SVGID_2_)" fill="#CDCED0" d="M13.7,21.6L13.7,21.6L13.7,21.6z"/>
		<path clip-path="url(#SVGID_2_)" fill="#CCCECF" d="M13.9,21.6L13.9,21.6L13.9,21.6z"/>
		<path clip-path="url(#SVGID_2_)" fill="#CBCDCF" d="M14.1,21.6L14.1,21.6L14.1,21.6z"/>
		<path clip-path="url(#SVGID_2_)" fill="#CACCCE" d="M14.2,21.6L14.2,21.6L14.2,21.6z"/>
		<path clip-path="url(#SVGID_2_)" fill="#C9CBCD" d="M14.4,21.6L14.4,21.6L14.4,21.6z"/>
		<path clip-path="url(#SVGID_2_)" fill="#C9CACC" d="M14.6,21.6L14.6,21.6L14.6,21.6z"/>
		<path clip-path="url(#SVGID_2_)" fill="#C8CACB" d="M14.7,21.6L14.7,21.6L14.7,21.6z"/>
		<path clip-path="url(#SVGID_2_)" fill="#C7C9CB" d="M14.9,21.6L14.9,21.6L14.9,21.6z"/>
		<path clip-path="url(#SVGID_2_)" fill="#C6C8CA" d="M15.1,21.6L15.1,21.6L15.1,21.6z"/>
		<path clip-path="url(#SVGID_2_)" fill="#C5C7C9" d="M15.2,21.6L15.2,21.6L15.2,21.6z"/>
		<path clip-path="url(#SVGID_2_)" fill="#C4C6C8" d="M15.4,21.6L15.4,21.6L15.4,21.6z"/>
		<path clip-path="url(#SVGID_2_)" fill="#C4C5C7" d="M15.6,21.6L15.6,21.6L15.6,21.6z"/>
		<path clip-path="url(#SVGID_2_)" fill="#C3C5C7" d="M15.7,21.6L15.7,21.6L15.7,21.6z"/>
		<path clip-path="url(#SVGID_2_)" fill="#C2C4C6" d="M15.9,21.6L15.9,21.6L15.9,21.6z"/>
		<path clip-path="url(#SVGID_2_)" fill="#C1C3C5" d="M16.1,21.6L16.1,21.6L16.1,21.6z"/>
		<path clip-path="url(#SVGID_2_)" fill="#C0C2C4" d="M16.2,21.6L16.2,21.6L16.2,21.6z"/>
		<path clip-path="url(#SVGID_2_)" fill="#BFC1C3" d="M16.4,21.6L16.4,21.6L16.4,21.6z"/>
		<path clip-path="url(#SVGID_2_)" fill="#BFC0C3" d="M16.6,21.6L16.6,21.6L16.6,21.6z"/>
		<path clip-path="url(#SVGID_2_)" fill="#BEC0C2" d="M16.7,21.6L16.7,21.6L16.7,21.6z"/>
		<path clip-path="url(#SVGID_2_)" fill="#BDBFC1" d="M16.9,21.6L16.9,21.6L16.9,21.6z"/>
		<path clip-path="url(#SVGID_2_)" fill="#BCBEC0" d="M17.1,21.6L17.1,21.6L17.1,21.6z"/>
		<path clip-path="url(#SVGID_2_)" fill="#BBBDBF" d="M17.2,21.6L17.2,21.6L17.2,21.6z"/>
		<path clip-path="url(#SVGID_2_)" fill="#BABCBF" d="M17.4,21.6L17.4,21.6L17.4,21.6z"/>
		<path clip-path="url(#SVGID_2_)" fill="#BABCBE" d="M17.6,21.6L17.6,21.6L17.6,21.6z"/>
		<path clip-path="url(#SVGID_2_)" fill="#B9BBBD" d="M17.7,21.6L17.7,21.6L17.7,21.6z"/>
		<path clip-path="url(#SVGID_2_)" fill="#B8BABC" d="M17.9,21.6L17.9,21.6L17.9,21.6z"/>
		<path clip-path="url(#SVGID_2_)" fill="#B7B9BB" d="M18.1,21.6L18.1,21.6L18.1,21.6z"/>
		<path clip-path="url(#SVGID_2_)" fill="#B6B8BB" d="M18.2,21.6L18.2,21.6L18.2,21.6z"/>
		<path clip-path="url(#SVGID_2_)" fill="#B5B7BA" d="M18.4,21.6L18.4,21.6L18.4,21.6z"/>
		<path clip-path="url(#SVGID_2_)" fill="#B5B7B9" d="M18.6,21.6L18.6,21.6L18.6,21.6z"/>
		<path clip-path="url(#SVGID_2_)" fill="#B4B6B8" d="M18.7,21.6L18.7,21.6L18.7,21.6z"/>
		<path clip-path="url(#SVGID_2_)" fill="#B3B5B7" d="M18.9,21.6L18.9,21.6L18.9,21.6z"/>
		<path clip-path="url(#SVGID_2_)" fill="#B2B4B7" d="M19.1,21.6L19.1,21.6L19.1,21.6z"/>
		<path clip-path="url(#SVGID_2_)" fill="#B1B3B6" d="M19.2,21.6L19.2,21.6L19.2,21.6z"/>
		<path clip-path="url(#SVGID_2_)" fill="#B0B3B5" d="M19.4,21.6L19.4,21.6L19.4,21.6z"/>
		<path clip-path="url(#SVGID_2_)" fill="#B0B2B4" d="M19.6,21.6L19.6,21.6L19.6,21.6z"/>
		<path clip-path="url(#SVGID_2_)" fill="#AFB1B3" d="M19.7,21.6L19.7,21.6L19.7,21.6z"/>
		<path clip-path="url(#SVGID_2_)" fill="#AEB0B3" d="M19.9,21.6L19.9,21.6L19.9,21.6z"/>
		<path clip-path="url(#SVGID_2_)" fill="#ADAFB2" d="M20.1,21.6L20.1,21.6L20.1,21.6z"/>
		<path clip-path="url(#SVGID_2_)" fill="#ACAEB1" d="M20.2,21.6L20.2,21.6L20.2,21.6z"/>
		<path clip-path="url(#SVGID_2_)" fill="#ACAEB0" d="M20.4,21.6L20.4,21.6L20.4,21.6z"/>
		<path clip-path="url(#SVGID_2_)" fill="#ABADAF" d="M20.6,21.6L20.6,21.6L20.6,21.6z"/>
		<path clip-path="url(#SVGID_2_)" fill="#AAACAF" d="M20.7,21.6L20.7,21.6L20.7,21.6z"/>
		<path clip-path="url(#SVGID_2_)" fill="#A9ABAE" d="M20.9,21.6L20.9,21.6L20.9,21.6z"/>
		<path clip-path="url(#SVGID_2_)" fill="#A8AAAD" d="M21.1,21.6L21.1,21.6L21.1,21.6z"/>
		<path clip-path="url(#SVGID_2_)" fill="#A8AAAC" d="M21.2,21.6L21.2,21.6L21.2,21.6z"/>
		<path clip-path="url(#SVGID_2_)" fill="#A7A9AB" d="M21.4,21.6L21.4,21.6L21.4,21.6z"/>
		<path clip-path="url(#SVGID_2_)" fill="#A6A8AB" d="M21.6,21.6L21.6,21.6L21.6,21.6z"/>
		<path clip-path="url(#SVGID_2_)" fill="#A5A7AA" d="M21.7,21.6L21.7,21.6L21.7,21.6z"/>
		<path clip-path="url(#SVGID_2_)" fill="#A4A6A9" d="M21.9,21.6L21.9,21.6L21.9,21.6z"/>
		<path clip-path="url(#SVGID_2_)" fill="#A4A6A8" d="M22.1,21.6L22.1,21.6L22.1,21.6z"/>
		<path clip-path="url(#SVGID_2_)" fill="#A3A5A7" d="M22.2,21.6L22.2,21.6L22.2,21.6z"/>
		<path clip-path="url(#SVGID_2_)" fill="#A2A4A7" d="M22.4,21.6L22.4,21.6L22.4,21.6z"/>
		<path clip-path="url(#SVGID_2_)" fill="#A1A3A6" d="M22.6,21.6L22.6,21.6L22.6,21.6z"/>
		<path clip-path="url(#SVGID_2_)" fill="#A0A3A5" d="M22.7,21.6L22.7,21.6L22.7,21.6z"/>
		<path clip-path="url(#SVGID_2_)" fill="#A0A2A4" d="M22.9,21.6L22.9,21.6L22.9,21.6z"/>
		<path clip-path="url(#SVGID_2_)" fill="#9FA1A4" d="M23.1,21.6L23.1,21.6L23.1,21.6z"/>
		<path clip-path="url(#SVGID_2_)" fill="#9EA0A3" d="M23.2,21.6L23.2,21.6L23.2,21.6z"/>
		<path clip-path="url(#SVGID_2_)" fill="#9D9FA2" d="M23.4,21.6L23.4,21.6L23.4,21.6z"/>
		<path clip-path="url(#SVGID_2_)" fill="#9C9FA1" d="M23.6,21.6L23.6,21.6L23.6,21.6z"/>
		<path clip-path="url(#SVGID_2_)" fill="#9C9EA0" d="M23.7,21.6L23.7,21.6L23.7,21.6z"/>
		<path clip-path="url(#SVGID_2_)" fill="#9B9DA0" d="M23.9,21.6L23.9,21.6L23.9,21.6z"/>
		<path clip-path="url(#SVGID_2_)" fill="#9A9C9F" d="M24.1,21.6L24.1,21.6L24.1,21.6z"/>
		<path clip-path="url(#SVGID_2_)" fill="#999B9E" d="M24.2,21.6L24.2,21.6L24.2,21.6z"/>
		<path clip-path="url(#SVGID_2_)" fill="#999B9D" d="M24.4,21.6L24.4,21.6L24.4,21.6z"/>
		<path clip-path="url(#SVGID_2_)" fill="#989A9D" d="M24.6,21.6L24.6,21.6L24.6,21.6z"/>
		<path clip-path="url(#SVGID_2_)" fill="#97999C" d="M24.7,21.6L24.7,21.6L24.7,21.6z"/>
		<path clip-path="url(#SVGID_2_)" fill="#96989B" d="M24.9,21.6L24.9,21.6L24.9,21.6z"/>
		<path clip-path="url(#SVGID_2_)" fill="#96989A" d="M25.1,21.6L25.1,21.6L25.1,21.6z"/>
		<path clip-path="url(#SVGID_2_)" fill="#959799" d="M25.2,21.6L25.2,21.6L25.2,21.6z"/>
		<path clip-path="url(#SVGID_2_)" fill="#949699" d="M25.4,21.6L25.4,21.6L25.4,21.6z"/>
		<path clip-path="url(#SVGID_2_)" fill="#939598" d="M25.6,21.6L25.6,21.6L25.6,21.6z"/>
		<path clip-path="url(#SVGID_2_)" fill="#929597" d="M25.7,21.6L25.7,21.6L25.7,21.6z"/>
		<path clip-path="url(#SVGID_2_)" fill="#929496" d="M25.9,21.6L25.9,21.6L25.9,21.6z"/>
		<path clip-path="url(#SVGID_2_)" fill="#919396" d="M26.1,21.6L26.1,21.6L26.1,21.6z"/>
		<path clip-path="url(#SVGID_2_)" fill="#909295" d="M26.2,21.6L26.2,21.6L26.2,21.6z"/>
		<path clip-path="url(#SVGID_2_)" fill="#8F9194" d="M26.4,21.6L26.4,21.6L26.4,21.6z"/>
		<path clip-path="url(#SVGID_2_)" fill="#8F9193" d="M26.6,21.6L26.6,21.6L26.6,21.6z"/>
		<path clip-path="url(#SVGID_2_)" fill="#8E9093" d="M26.7,21.6L26.7,21.6L26.7,21.6z"/>
		<path clip-path="url(#SVGID_2_)" fill="#8D8F92" d="M26.9,21.6L26.9,21.6L26.9,21.6z"/>
		<path clip-path="url(#SVGID_2_)" fill="#8C8E91" d="M27.1,21.6L27.1,21.6L27.1,21.6z"/>
		<path clip-path="url(#SVGID_2_)" fill="#8C8E90" d="M27.2,21.6L27.2,21.6L27.2,21.6z"/>
		<path clip-path="url(#SVGID_2_)" fill="#8B8D90" d="M27.4,21.6L27.4,21.6L27.4,21.6z"/>
		<path clip-path="url(#SVGID_2_)" fill="#8A8C8F" d="M27.6,21.6L27.6,21.6L27.6,21.6z"/>
		<path clip-path="url(#SVGID_2_)" fill="#898B8E" d="M27.7,21.6L27.7,21.6L27.7,21.6z"/>
		<path clip-path="url(#SVGID_2_)" fill="#898B8D" d="M27.9,21.6L27.9,21.6L27.9,21.6z"/>
		<path clip-path="url(#SVGID_2_)" fill="#888A8D" d="M28.1,21.6L28.1,21.6L28.1,21.6z"/>
		<path clip-path="url(#SVGID_2_)" fill="#87898C" d="M28.2,21.6L28.2,21.6L28.2,21.6z"/>
		<path clip-path="url(#SVGID_2_)" fill="#86888B" d="M28.4,21.6L28.4,21.6L28.4,21.6z"/>
		<path clip-path="url(#SVGID_2_)" fill="#86888A" d="M28.6,21.6L28.6,21.6L28.6,21.6z"/>
		<path clip-path="url(#SVGID_2_)" fill="#85878A" d="M28.7,21.6L28.7,21.6L28.7,21.6z"/>
		<path clip-path="url(#SVGID_2_)" fill="#848689" d="M28.9,21.6L28.9,21.6L28.9,21.6z"/>
		<path clip-path="url(#SVGID_2_)" fill="#848588" d="M29.1,21.6L29.1,21.6L29.1,21.6z"/>
		<path clip-path="url(#SVGID_2_)" fill="#838587" d="M29.2,21.6L29.2,21.6L29.2,21.6z"/>
		<path clip-path="url(#SVGID_2_)" fill="#828486" d="M29.4,21.6L29.4,21.6L29.4,21.6z"/>
		<path clip-path="url(#SVGID_2_)" fill="#818386" d="M29.6,21.6L29.6,21.6L29.6,21.6z"/>
		<path clip-path="url(#SVGID_2_)" fill="#818285" d="M29.7,21.6L29.7,21.6L29.7,21.6z"/>
		<path clip-path="url(#SVGID_2_)" fill="#808284" d="M29.9,21.6L29.9,21.6L29.9,21.6z"/>
		<path clip-path="url(#SVGID_2_)" fill="#7F8183" d="M30.1,21.6L30.1,21.6L30.1,21.6z"/>
		<path clip-path="url(#SVGID_2_)" fill="#7E8083" d="M30.2,21.6L30.2,21.6L30.2,21.6z"/>
		<path clip-path="url(#SVGID_2_)" fill="#7E7F82" d="M30.4,21.6L30.4,21.6L30.4,21.6z"/>
		<path clip-path="url(#SVGID_2_)" fill="#7D7F81" d="M30.6,21.6L30.6,21.6L30.6,21.6z"/>
		<path clip-path="url(#SVGID_2_)" fill="#7C7E80" d="M30.7,21.6L30.7,21.6L30.7,21.6z"/>
		<path clip-path="url(#SVGID_2_)" fill="#7B7D80" d="M30.9,21.6L30.9,21.6L30.9,21.6z"/>
		<path clip-path="url(#SVGID_2_)" fill="#7B7C7F" d="M31.1,21.6L31.1,21.6L31.1,21.6z"/>
		<path clip-path="url(#SVGID_2_)" fill="#7A7C7E" d="M31.2,21.6L31.2,21.6L31.2,21.6z"/>
		<path clip-path="url(#SVGID_2_)" fill="#797B7D" d="M31.4,21.6L31.4,21.6L31.4,21.6z"/>
		<path clip-path="url(#SVGID_2_)" fill="#787A7D" d="M31.6,21.6L31.6,21.6L31.6,21.6z"/>
		<path clip-path="url(#SVGID_2_)" fill="#78797C" d="M31.7,21.6L31.7,21.6L31.7,21.6z"/>
		<path clip-path="url(#SVGID_2_)" fill="#77797B" d="M31.9,21.6L31.9,21.6L31.9,21.6z"/>
		<path clip-path="url(#SVGID_2_)" fill="#76787A" d="M32.1,21.6L32.1,21.6L32.1,21.6z"/>
		<path clip-path="url(#SVGID_2_)" fill="#75777A" d="M32.2,21.6L32.2,21.6L32.2,21.6z"/>
		<path clip-path="url(#SVGID_2_)" fill="#757679" d="M32.4,21.6L32.4,21.6L32.4,21.6z"/>
		<path clip-path="url(#SVGID_2_)" fill="#747578" d="M32.6,21.6L32.6,21.6L32.6,21.6z"/>
		<path clip-path="url(#SVGID_2_)" fill="#737577" d="M32.7,21.6L32.7,21.6L32.7,21.6z"/>
		<path clip-path="url(#SVGID_2_)" fill="#727476" d="M32.9,21.6L32.9,21.6L32.9,21.6z"/>
		<path clip-path="url(#SVGID_2_)" fill="#727376" d="M33.1,21.6L33.1,21.6L33.1,21.6z"/>
		<path clip-path="url(#SVGID_2_)" fill="#717275" d="M33.2,21.6L33.2,21.6L33.2,21.6z"/>
		<path clip-path="url(#SVGID_2_)" fill="#707274" d="M33.4,21.6L33.4,21.6L33.4,21.6z"/>
		<path clip-path="url(#SVGID_2_)" fill="#6F7173" d="M33.6,21.6L33.6,21.6L33.6,21.6z"/>
		<path clip-path="url(#SVGID_2_)" fill="#6E7072" d="M33.7,21.6L33.7,21.6L33.7,21.6z"/>
		<path clip-path="url(#SVGID_2_)" fill="#6E6F72" d="M33.9,21.6L33.9,21.6L33.9,21.6z"/>
		<path clip-path="url(#SVGID_2_)" fill="#6D6E71" d="M34.1,21.6L34.1,21.6L34.1,21.6z"/>
		<path clip-path="url(#SVGID_2_)" fill="#6C6E70" d="M34.2,21.6L34.2,21.6L34.2,21.6z"/>
		<path clip-path="url(#SVGID_2_)" fill="#6B6D6F" d="M34.4,21.6L34.4,21.6L34.4,21.6z"/>
		<path clip-path="url(#SVGID_2_)" fill="#6B6C6E" d="M34.6,21.6L34.6,21.6L34.6,21.6z"/>
		<path clip-path="url(#SVGID_2_)" fill="#6A6B6D" d="M34.7,21.6L34.7,21.6L34.7,21.6z"/>
		<path clip-path="url(#SVGID_2_)" fill="#696A6D" d="M34.9,21.6L34.9,21.6L34.9,21.6z"/>
		<path clip-path="url(#SVGID_2_)" fill="#68696C" d="M35.1,21.6L35.1,21.6L35.1,21.6z"/>
		<path clip-path="url(#SVGID_2_)" fill="#67696B" d="M35.2,21.6L35.2,21.6L35.2,21.6z"/>
		<path clip-path="url(#SVGID_2_)" fill="#67686A" d="M35.4,21.6L35.4,21.6L35.4,21.6z"/>
		<path clip-path="url(#SVGID_2_)" fill="#666769" d="M35.6,21.6L35.6,21.6L35.6,21.6z"/>
		<path clip-path="url(#SVGID_2_)" fill="#656668" d="M35.7,21.6L35.7,21.6L35.7,21.6z"/>
		<path clip-path="url(#SVGID_2_)" fill="#646568" d="M35.9,21.6L35.9,21.6L35.9,21.6z"/>
		<path clip-path="url(#SVGID_2_)" fill="#636467" d="M36.1,21.6L36.1,21.6L36.1,21.6z"/>
		<path clip-path="url(#SVGID_2_)" fill="#626466" d="M36.2,21.6L36.2,21.6L36.2,21.6z"/>
		<path clip-path="url(#SVGID_2_)" fill="#626365" d="M36.4,21.6L36.4,21.6L36.4,21.6z"/>
		<path clip-path="url(#SVGID_2_)" fill="#616264" d="M36.6,21.6L36.6,21.6L36.6,21.6z"/>
		<path clip-path="url(#SVGID_2_)" fill="#606163" d="M36.7,21.6L36.7,21.6L36.7,21.6z"/>
		<path clip-path="url(#SVGID_2_)" fill="#5F6062" d="M36.9,21.6L36.9,21.6L36.9,21.6z"/>
		<path clip-path="url(#SVGID_2_)" fill="#5E5F62" d="M37.1,21.6L37.1,21.6L37.1,21.6z"/>
		<path clip-path="url(#SVGID_2_)" fill="#5D5E61" d="M37.2,21.6L37.2,21.6L37.2,21.6z"/>
		<path clip-path="url(#SVGID_2_)" fill="#5D5E60" d="M37.4,21.6L37.4,21.6L37.4,21.6z"/>
		<path clip-path="url(#SVGID_2_)" fill="#5C5D5F" d="M37.6,21.6L37.6,21.6L37.6,21.6z"/>
		<path clip-path="url(#SVGID_2_)" fill="#5B5C5E" d="M37.7,21.6L37.7,21.6L37.7,21.6z"/>
		<path clip-path="url(#SVGID_2_)" fill="#5A5B5D" d="M37.9,21.6L37.9,21.6L37.9,21.6z"/>
		<path clip-path="url(#SVGID_2_)" fill="#595A5C" d="M38.1,21.6L38.1,21.6L38.1,21.6z"/>
		<path clip-path="url(#SVGID_2_)" fill="#58595B" d="M38.2,21.6L38.2,21.6L38.2,21.6z"/>
		<path clip-path="url(#SVGID_2_)" fill="#57585A" d="M38.4,21.6L38.4,21.6L38.4,21.6z"/>
		<path clip-path="url(#SVGID_2_)" fill="#575759" d="M38.6,21.6L38.6,21.6L38.6,21.6z"/>
		<path clip-path="url(#SVGID_2_)" fill="#565658" d="M38.7,21.6L38.7,21.6L38.7,21.6z"/>
		<path clip-path="url(#SVGID_2_)" fill="#555558" d="M38.9,21.6L38.9,21.6L38.9,21.6z"/>
		<path clip-path="url(#SVGID_2_)" fill="#545457" d="M39.1,21.6L39.1,21.6L39.1,21.6z"/>
		<path clip-path="url(#SVGID_2_)" fill="#535456" d="M39.2,21.6L39.2,21.6L39.2,21.6z"/>
		<path clip-path="url(#SVGID_2_)" fill="#525355" d="M39.4,21.6L39.4,21.6L39.4,21.6z"/>
		<path clip-path="url(#SVGID_2_)" fill="#515254" d="M39.6,21.6L39.6,21.6L39.6,21.6z"/>
		<path clip-path="url(#SVGID_2_)" fill="#505153" d="M39.7,21.6L39.7,21.6L39.7,21.6z"/>
		<path clip-path="url(#SVGID_2_)" fill="#4F5052" d="M39.9,21.6L39.9,21.6L39.9,21.6z"/>
		<path clip-path="url(#SVGID_2_)" fill="#4F4F51" d="M40.1,21.6L40.1,21.6L40.1,21.6z"/>
		<path clip-path="url(#SVGID_2_)" fill="#4E4E50" d="M40.2,21.6L40.2,21.6L40.2,21.6z"/>
		<path clip-path="url(#SVGID_2_)" fill="#4D4D4F" d="M40.4,21.6L40.4,21.6L40.4,21.6z"/>
		<path clip-path="url(#SVGID_2_)" fill="#4C4C4E" d="M40.6,21.6L40.6,21.6L40.6,21.6z"/>
		<path clip-path="url(#SVGID_2_)" fill="#4B4B4D" d="M40.7,21.6L40.7,21.6L40.7,21.6z"/>
		<path clip-path="url(#SVGID_2_)" fill="#4A4A4C" d="M40.9,21.6L40.9,21.6L40.9,21.6z"/>
		<path clip-path="url(#SVGID_2_)" fill="#49494B" d="M41.1,21.6L41.1,21.6L41.1,21.6z"/>
		<path clip-path="url(#SVGID_2_)" fill="#48484A" d="M41.2,21.6L41.2,21.6L41.2,21.6z"/>
		<path clip-path="url(#SVGID_2_)" fill="#474749" d="M41.4,21.6L41.4,21.6L41.4,21.6z"/>
		<path clip-path="url(#SVGID_2_)" fill="#464648" d="M41.6,21.6L41.6,21.6L41.6,21.6z"/>
		<path clip-path="url(#SVGID_2_)" fill="#454547" d="M41.7,21.6L41.7,21.6L41.7,21.6z"/>
		<path clip-path="url(#SVGID_2_)" fill="#444446" d="M41.9,21.6L41.9,21.6L41.9,21.6z"/>
		<path clip-path="url(#SVGID_2_)" fill="#434345" d="M42.1,21.6L42.1,21.6L42.1,21.6z"/>
		<path clip-path="url(#SVGID_2_)" fill="#424244" d="M42.2,21.6L42.2,21.6L42.2,21.6z"/>
		<path clip-path="url(#SVGID_2_)" fill="#414143" d="M42.4,21.6L42.4,21.6L42.4,21.6z"/>
		<path clip-path="url(#SVGID_2_)" fill="#404042" d="M42.6,21.6L42.6,21.6L42.6,21.6z"/>
		<path clip-path="url(#SVGID_2_)" fill="#3F3E40" d="M42.7,21.6L42.7,21.6L42.7,21.6z"/>
		<path clip-path="url(#SVGID_2_)" fill="#3D3D3E" d="M42.9,21.6L42.9,21.6L42.9,21.6z"/>
		<path clip-path="url(#SVGID_2_)" fill="#3B3B3D" d="M43.1,21.6L43.1,21.6L43.1,21.6z"/>
		<path clip-path="url(#SVGID_2_)" fill="#3A393B" d="M43.2,21.6L43.2,21.6L43.2,21.6z"/>
		<path clip-path="url(#SVGID_2_)" fill="#383739" d="M43.4,21.6L43.4,21.6L43.4,21.6z"/>
		<path clip-path="url(#SVGID_2_)" fill="#363537" d="M43.6,21.6L43.6,21.6L43.6,21.6z"/>
		<path clip-path="url(#SVGID_2_)" fill="#343335" d="M43.7,21.6L43.7,21.6L43.7,21.6z"/>
		<path clip-path="url(#SVGID_2_)" fill="#323133" d="M43.9,21.6L43.9,21.6L43.9,21.6z"/>
		<path clip-path="url(#SVGID_2_)" fill="#302F31" d="M44.1,21.6L44.1,21.6L44.1,21.6z"/>
		<path clip-path="url(#SVGID_2_)" fill="#2E2D2E" d="M44.2,21.6L44.2,21.6L44.2,21.6z"/>
		<path clip-path="url(#SVGID_2_)" fill="#2B2B2C" d="M44.4,21.6L44.4,21.6L44.4,21.6z"/>
		<path clip-path="url(#SVGID_2_)" fill="#29292A" d="M44.6,21.6L44.6,21.6L44.6,21.6z"/>
		<path clip-path="url(#SVGID_2_)" fill="#272728" d="M44.7,21.6L44.7,21.6L44.7,21.6z"/>
		<path clip-path="url(#SVGID_2_)" fill="#242425" d="M44.9,21.6L44.9,21.6L44.9,21.6z"/>
		<path clip-path="url(#SVGID_2_)" fill="#222223" d="M45.1,21.6L45.1,21.6L45.1,21.6z"/>
		<path clip-path="url(#SVGID_2_)" fill="#1F1F20" d="M45.2,21.6L45.2,21.6L45.2,21.6z"/>
		<path clip-path="url(#SVGID_2_)" fill="#1D1D1D" d="M45.4,21.6L45.4,21.6L45.4,21.6z"/>
		<path clip-path="url(#SVGID_2_)" fill="#1A1A1A" d="M45.6,21.6L45.6,21.6L45.6,21.6z"/>
		<path clip-path="url(#SVGID_2_)" fill="#171717" d="M45.7,21.6L45.7,21.6L45.7,21.6z"/>
		<path clip-path="url(#SVGID_2_)" fill="#141414" d="M45.9,21.6L45.9,21.6L45.9,21.6z"/>
		<path clip-path="url(#SVGID_2_)" fill="#101011" d="M46.1,21.6L46.1,21.6L46.1,21.6z"/>
		<path clip-path="url(#SVGID_2_)" fill="#0D0C0D" d="M46.2,21.6L46.2,21.6L46.2,21.6z"/>
		<path clip-path="url(#SVGID_2_)" fill="#080808" d="M46.4,21.6L46.4,21.6L46.4,21.6z"/>
		<path clip-path="url(#SVGID_2_)" fill="#040404" d="M46.6,21.6L46.6,21.6L46.6,21.6z"/>
		<path clip-path="url(#SVGID_2_)" d="M46.7,21.6L46.7,21.6L46.7,21.6z"/>
		<path clip-path="url(#SVGID_2_)" d="M46.7,21.6L46.7,21.6L46.7,21.6z"/>
	</g>
	<rect x="4.2" y="20.9" fill="#939598" width="42.5" height="1.5"/>
</g>
<g>
	<g>
		<defs>
			<line id="SVGID_3_" x1="4.2" y1="28.7" x2="46.7" y2="28.7"/>
		</defs>
		<clipPath id="SVGID_4_">
			<use xlink:href="#SVGID_3_"  overflow="visible"/>
		</clipPath>
		<path clip-path="url(#SVGID_4_)" fill="#FFFFFF" d="M4.2,28.7L4.2,28.7L4.2,28.7z"/>
		<path clip-path="url(#SVGID_4_)" fill="#FFFFFF" d="M4.4,28.7L4.4,28.7L4.4,28.7z"/>
		<path clip-path="url(#SVGID_4_)" fill="#FDFDFD" d="M4.6,28.7L4.6,28.7L4.6,28.7z"/>
		<path clip-path="url(#SVGID_4_)" fill="#FCFCFC" d="M4.7,28.7L4.7,28.7L4.7,28.7z"/>
		<path clip-path="url(#SVGID_4_)" fill="#FAFBFB" d="M4.9,28.7L4.9,28.7L4.9,28.7z"/>
		<path clip-path="url(#SVGID_4_)" fill="#F9F9FA" d="M5.1,28.7L5.1,28.7L5.1,28.7z"/>
		<path clip-path="url(#SVGID_4_)" fill="#F8F8F9" d="M5.2,28.7L5.2,28.7L5.2,28.7z"/>
		<path clip-path="url(#SVGID_4_)" fill="#F7F7F8" d="M5.4,28.7L5.4,28.7L5.4,28.7z"/>
		<path clip-path="url(#SVGID_4_)" fill="#F6F6F7" d="M5.6,28.7L5.6,28.7L5.6,28.7z"/>
		<path clip-path="url(#SVGID_4_)" fill="#F5F6F6" d="M5.7,28.7L5.7,28.7L5.7,28.7z"/>
		<path clip-path="url(#SVGID_4_)" fill="#F4F5F5" d="M5.9,28.7L5.9,28.7L5.9,28.7z"/>
		<path clip-path="url(#SVGID_4_)" fill="#F3F4F4" d="M6.1,28.7L6.1,28.7L6.1,28.7z"/>
		<path clip-path="url(#SVGID_4_)" fill="#F3F3F3" d="M6.2,28.7L6.2,28.7L6.2,28.7z"/>
		<path clip-path="url(#SVGID_4_)" fill="#F2F2F3" d="M6.4,28.7L6.4,28.7L6.4,28.7z"/>
		<path clip-path="url(#SVGID_4_)" fill="#F1F1F2" d="M6.6,28.7L6.6,28.7L6.6,28.7z"/>
		<path clip-path="url(#SVGID_4_)" fill="#F0F0F1" d="M6.7,28.7L6.7,28.7L6.7,28.7z"/>
		<path clip-path="url(#SVGID_4_)" fill="#EFF0F0" d="M6.9,28.7L6.9,28.7L6.9,28.7z"/>
		<path clip-path="url(#SVGID_4_)" fill="#EEEFF0" d="M7.1,28.7L7.1,28.7L7.1,28.7z"/>
		<path clip-path="url(#SVGID_4_)" fill="#EDEEEF" d="M7.2,28.7L7.2,28.7L7.2,28.7z"/>
		<path clip-path="url(#SVGID_4_)" fill="#EDEDEE" d="M7.4,28.7L7.4,28.7L7.4,28.7z"/>
		<path clip-path="url(#SVGID_4_)" fill="#ECECED" d="M7.6,28.7L7.6,28.7L7.6,28.7z"/>
		<path clip-path="url(#SVGID_4_)" fill="#EBECEC" d="M7.7,28.7L7.7,28.7L7.7,28.7z"/>
		<path clip-path="url(#SVGID_4_)" fill="#EAEBEC" d="M7.9,28.7L7.9,28.7L7.9,28.7z"/>
		<path clip-path="url(#SVGID_4_)" fill="#E9EAEB" d="M8.1,28.7L8.1,28.7L8.1,28.7z"/>
		<path clip-path="url(#SVGID_4_)" fill="#E8E9EA" d="M8.2,28.7L8.2,28.7L8.2,28.7z"/>
		<path clip-path="url(#SVGID_4_)" fill="#E8E8E9" d="M8.4,28.7L8.4,28.7L8.4,28.7z"/>
		<path clip-path="url(#SVGID_4_)" fill="#E7E7E8" d="M8.6,28.7L8.6,28.7L8.6,28.7z"/>
		<path clip-path="url(#SVGID_4_)" fill="#E6E7E8" d="M8.7,28.7L8.7,28.7L8.7,28.7z"/>
		<path clip-path="url(#SVGID_4_)" fill="#E5E6E7" d="M8.9,28.7L8.9,28.7L8.9,28.7z"/>
		<path clip-path="url(#SVGID_4_)" fill="#E4E5E6" d="M9.1,28.7L9.1,28.7L9.1,28.7z"/>
		<path clip-path="url(#SVGID_4_)" fill="#E3E4E5" d="M9.2,28.7L9.2,28.7L9.2,28.7z"/>
		<path clip-path="url(#SVGID_4_)" fill="#E2E3E5" d="M9.4,28.7L9.4,28.7L9.4,28.7z"/>
		<path clip-path="url(#SVGID_4_)" fill="#E2E3E4" d="M9.6,28.7L9.6,28.7L9.6,28.7z"/>
		<path clip-path="url(#SVGID_4_)" fill="#E1E2E3" d="M9.7,28.7L9.7,28.7L9.7,28.7z"/>
		<path clip-path="url(#SVGID_4_)" fill="#E0E1E2" d="M9.9,28.7L9.9,28.7L9.9,28.7z"/>
		<path clip-path="url(#SVGID_4_)" fill="#DFE0E1" d="M10.1,28.7L10.1,28.7L10.1,28.7z"/>
		<path clip-path="url(#SVGID_4_)" fill="#DEDFE1" d="M10.2,28.7L10.2,28.7L10.2,28.7z"/>
		<path clip-path="url(#SVGID_4_)" fill="#DDDFE0" d="M10.4,28.7L10.4,28.7L10.4,28.7z"/>
		<path clip-path="url(#SVGID_4_)" fill="#DDDEDF" d="M10.6,28.7L10.6,28.7L10.6,28.7z"/>
		<path clip-path="url(#SVGID_4_)" fill="#DCDDDE" d="M10.7,28.7L10.7,28.7L10.7,28.7z"/>
		<path clip-path="url(#SVGID_4_)" fill="#DBDCDE" d="M10.9,28.7L10.9,28.7L10.9,28.7z"/>
		<path clip-path="url(#SVGID_4_)" fill="#DADBDD" d="M11.1,28.7L11.1,28.7L11.1,28.7z"/>
		<path clip-path="url(#SVGID_4_)" fill="#D9DBDC" d="M11.2,28.7L11.2,28.7L11.2,28.7z"/>
		<path clip-path="url(#SVGID_4_)" fill="#D9DADB" d="M11.4,28.7L11.4,28.7L11.4,28.7z"/>
		<path clip-path="url(#SVGID_4_)" fill="#D8D9DA" d="M11.6,28.7L11.6,28.7L11.6,28.7z"/>
		<path clip-path="url(#SVGID_4_)" fill="#D7D8DA" d="M11.7,28.7L11.7,28.7L11.7,28.7z"/>
		<path clip-path="url(#SVGID_4_)" fill="#D6D7D9" d="M11.9,28.7L11.9,28.7L11.9,28.7z"/>
		<path clip-path="url(#SVGID_4_)" fill="#D5D7D8" d="M12.1,28.7L12.1,28.7L12.1,28.7z"/>
		<path clip-path="url(#SVGID_4_)" fill="#D4D6D7" d="M12.2,28.7L12.2,28.7L12.2,28.7z"/>
		<path clip-path="url(#SVGID_4_)" fill="#D4D5D6" d="M12.4,28.7L12.4,28.7L12.4,28.7z"/>
		<path clip-path="url(#SVGID_4_)" fill="#D3D4D6" d="M12.6,28.7L12.6,28.7L12.6,28.7z"/>
		<path clip-path="url(#SVGID_4_)" fill="#D2D3D5" d="M12.7,28.7L12.7,28.7L12.7,28.7z"/>
		<path clip-path="url(#SVGID_4_)" fill="#D1D2D4" d="M12.9,28.7L12.9,28.7L12.9,28.7z"/>
		<path clip-path="url(#SVGID_4_)" fill="#D0D2D3" d="M13.1,28.7L13.1,28.7L13.1,28.7z"/>
		<path clip-path="url(#SVGID_4_)" fill="#CFD1D3" d="M13.2,28.7L13.2,28.7L13.2,28.7z"/>
		<path clip-path="url(#SVGID_4_)" fill="#CFD0D2" d="M13.4,28.7L13.4,28.7L13.4,28.7z"/>
		<path clip-path="url(#SVGID_4_)" fill="#CECFD1" d="M13.6,28.7L13.6,28.7L13.6,28.7z"/>
		<path clip-path="url(#SVGID_4_)" fill="#CDCED0" d="M13.7,28.7L13.7,28.7L13.7,28.7z"/>
		<path clip-path="url(#SVGID_4_)" fill="#CCCECF" d="M13.9,28.7L13.9,28.7L13.9,28.7z"/>
		<path clip-path="url(#SVGID_4_)" fill="#CBCDCF" d="M14.1,28.7L14.1,28.7L14.1,28.7z"/>
		<path clip-path="url(#SVGID_4_)" fill="#CACCCE" d="M14.2,28.7L14.2,28.7L14.2,28.7z"/>
		<path clip-path="url(#SVGID_4_)" fill="#C9CBCD" d="M14.4,28.7L14.4,28.7L14.4,28.7z"/>
		<path clip-path="url(#SVGID_4_)" fill="#C9CACC" d="M14.6,28.7L14.6,28.7L14.6,28.7z"/>
		<path clip-path="url(#SVGID_4_)" fill="#C8CACB" d="M14.7,28.7L14.7,28.7L14.7,28.7z"/>
		<path clip-path="url(#SVGID_4_)" fill="#C7C9CB" d="M14.9,28.7L14.9,28.7L14.9,28.7z"/>
		<path clip-path="url(#SVGID_4_)" fill="#C6C8CA" d="M15.1,28.7L15.1,28.7L15.1,28.7z"/>
		<path clip-path="url(#SVGID_4_)" fill="#C5C7C9" d="M15.2,28.7L15.2,28.7L15.2,28.7z"/>
		<path clip-path="url(#SVGID_4_)" fill="#C4C6C8" d="M15.4,28.7L15.4,28.7L15.4,28.7z"/>
		<path clip-path="url(#SVGID_4_)" fill="#C4C5C7" d="M15.6,28.7L15.6,28.7L15.6,28.7z"/>
		<path clip-path="url(#SVGID_4_)" fill="#C3C5C7" d="M15.7,28.7L15.7,28.7L15.7,28.7z"/>
		<path clip-path="url(#SVGID_4_)" fill="#C2C4C6" d="M15.9,28.7L15.9,28.7L15.9,28.7z"/>
		<path clip-path="url(#SVGID_4_)" fill="#C1C3C5" d="M16.1,28.7L16.1,28.7L16.1,28.7z"/>
		<path clip-path="url(#SVGID_4_)" fill="#C0C2C4" d="M16.2,28.7L16.2,28.7L16.2,28.7z"/>
		<path clip-path="url(#SVGID_4_)" fill="#BFC1C3" d="M16.4,28.7L16.4,28.7L16.4,28.7z"/>
		<path clip-path="url(#SVGID_4_)" fill="#BFC0C3" d="M16.6,28.7L16.6,28.7L16.6,28.7z"/>
		<path clip-path="url(#SVGID_4_)" fill="#BEC0C2" d="M16.7,28.7L16.7,28.7L16.7,28.7z"/>
		<path clip-path="url(#SVGID_4_)" fill="#BDBFC1" d="M16.9,28.7L16.9,28.7L16.9,28.7z"/>
		<path clip-path="url(#SVGID_4_)" fill="#BCBEC0" d="M17.1,28.7L17.1,28.7L17.1,28.7z"/>
		<path clip-path="url(#SVGID_4_)" fill="#BBBDBF" d="M17.2,28.7L17.2,28.7L17.2,28.7z"/>
		<path clip-path="url(#SVGID_4_)" fill="#BABCBF" d="M17.4,28.7L17.4,28.7L17.4,28.7z"/>
		<path clip-path="url(#SVGID_4_)" fill="#BABCBE" d="M17.6,28.7L17.6,28.7L17.6,28.7z"/>
		<path clip-path="url(#SVGID_4_)" fill="#B9BBBD" d="M17.7,28.7L17.7,28.7L17.7,28.7z"/>
		<path clip-path="url(#SVGID_4_)" fill="#B8BABC" d="M17.9,28.7L17.9,28.7L17.9,28.7z"/>
		<path clip-path="url(#SVGID_4_)" fill="#B7B9BB" d="M18.1,28.7L18.1,28.7L18.1,28.7z"/>
		<path clip-path="url(#SVGID_4_)" fill="#B6B8BB" d="M18.2,28.7L18.2,28.7L18.2,28.7z"/>
		<path clip-path="url(#SVGID_4_)" fill="#B5B7BA" d="M18.4,28.7L18.4,28.7L18.4,28.7z"/>
		<path clip-path="url(#SVGID_4_)" fill="#B5B7B9" d="M18.6,28.7L18.6,28.7L18.6,28.7z"/>
		<path clip-path="url(#SVGID_4_)" fill="#B4B6B8" d="M18.7,28.7L18.7,28.7L18.7,28.7z"/>
		<path clip-path="url(#SVGID_4_)" fill="#B3B5B7" d="M18.9,28.7L18.9,28.7L18.9,28.7z"/>
		<path clip-path="url(#SVGID_4_)" fill="#B2B4B7" d="M19.1,28.7L19.1,28.7L19.1,28.7z"/>
		<path clip-path="url(#SVGID_4_)" fill="#B1B3B6" d="M19.2,28.7L19.2,28.7L19.2,28.7z"/>
		<path clip-path="url(#SVGID_4_)" fill="#B0B3B5" d="M19.4,28.7L19.4,28.7L19.4,28.7z"/>
		<path clip-path="url(#SVGID_4_)" fill="#B0B2B4" d="M19.6,28.7L19.6,28.7L19.6,28.7z"/>
		<path clip-path="url(#SVGID_4_)" fill="#AFB1B3" d="M19.7,28.7L19.7,28.7L19.7,28.7z"/>
		<path clip-path="url(#SVGID_4_)" fill="#AEB0B3" d="M19.9,28.7L19.9,28.7L19.9,28.7z"/>
		<path clip-path="url(#SVGID_4_)" fill="#ADAFB2" d="M20.1,28.7L20.1,28.7L20.1,28.7z"/>
		<path clip-path="url(#SVGID_4_)" fill="#ACAEB1" d="M20.2,28.7L20.2,28.7L20.2,28.7z"/>
		<path clip-path="url(#SVGID_4_)" fill="#ACAEB0" d="M20.4,28.7L20.4,28.7L20.4,28.7z"/>
		<path clip-path="url(#SVGID_4_)" fill="#ABADAF" d="M20.6,28.7L20.6,28.7L20.6,28.7z"/>
		<path clip-path="url(#SVGID_4_)" fill="#AAACAF" d="M20.7,28.7L20.7,28.7L20.7,28.7z"/>
		<path clip-path="url(#SVGID_4_)" fill="#A9ABAE" d="M20.9,28.7L20.9,28.7L20.9,28.7z"/>
		<path clip-path="url(#SVGID_4_)" fill="#A8AAAD" d="M21.1,28.7L21.1,28.7L21.1,28.7z"/>
		<path clip-path="url(#SVGID_4_)" fill="#A8AAAC" d="M21.2,28.7L21.2,28.7L21.2,28.7z"/>
		<path clip-path="url(#SVGID_4_)" fill="#A7A9AB" d="M21.4,28.7L21.4,28.7L21.4,28.7z"/>
		<path clip-path="url(#SVGID_4_)" fill="#A6A8AB" d="M21.6,28.7L21.6,28.7L21.6,28.7z"/>
		<path clip-path="url(#SVGID_4_)" fill="#A5A7AA" d="M21.7,28.7L21.7,28.7L21.7,28.7z"/>
		<path clip-path="url(#SVGID_4_)" fill="#A4A6A9" d="M21.9,28.7L21.9,28.7L21.9,28.7z"/>
		<path clip-path="url(#SVGID_4_)" fill="#A4A6A8" d="M22.1,28.7L22.1,28.7L22.1,28.7z"/>
		<path clip-path="url(#SVGID_4_)" fill="#A3A5A7" d="M22.2,28.7L22.2,28.7L22.2,28.7z"/>
		<path clip-path="url(#SVGID_4_)" fill="#A2A4A7" d="M22.4,28.7L22.4,28.7L22.4,28.7z"/>
		<path clip-path="url(#SVGID_4_)" fill="#A1A3A6" d="M22.6,28.7L22.6,28.7L22.6,28.7z"/>
		<path clip-path="url(#SVGID_4_)" fill="#A0A3A5" d="M22.7,28.7L22.7,28.7L22.7,28.7z"/>
		<path clip-path="url(#SVGID_4_)" fill="#A0A2A4" d="M22.9,28.7L22.9,28.7L22.9,28.7z"/>
		<path clip-path="url(#SVGID_4_)" fill="#9FA1A4" d="M23.1,28.7L23.1,28.7L23.1,28.7z"/>
		<path clip-path="url(#SVGID_4_)" fill="#9EA0A3" d="M23.2,28.7L23.2,28.7L23.2,28.7z"/>
		<path clip-path="url(#SVGID_4_)" fill="#9D9FA2" d="M23.4,28.7L23.4,28.7L23.4,28.7z"/>
		<path clip-path="url(#SVGID_4_)" fill="#9C9FA1" d="M23.6,28.7L23.6,28.7L23.6,28.7z"/>
		<path clip-path="url(#SVGID_4_)" fill="#9C9EA0" d="M23.7,28.7L23.7,28.7L23.7,28.7z"/>
		<path clip-path="url(#SVGID_4_)" fill="#9B9DA0" d="M23.9,28.7L23.9,28.7L23.9,28.7z"/>
		<path clip-path="url(#SVGID_4_)" fill="#9A9C9F" d="M24.1,28.7L24.1,28.7L24.1,28.7z"/>
		<path clip-path="url(#SVGID_4_)" fill="#999B9E" d="M24.2,28.7L24.2,28.7L24.2,28.7z"/>
		<path clip-path="url(#SVGID_4_)" fill="#999B9D" d="M24.4,28.7L24.4,28.7L24.4,28.7z"/>
		<path clip-path="url(#SVGID_4_)" fill="#989A9D" d="M24.6,28.7L24.6,28.7L24.6,28.7z"/>
		<path clip-path="url(#SVGID_4_)" fill="#97999C" d="M24.7,28.7L24.7,28.7L24.7,28.7z"/>
		<path clip-path="url(#SVGID_4_)" fill="#96989B" d="M24.9,28.7L24.9,28.7L24.9,28.7z"/>
		<path clip-path="url(#SVGID_4_)" fill="#96989A" d="M25.1,28.7L25.1,28.7L25.1,28.7z"/>
		<path clip-path="url(#SVGID_4_)" fill="#959799" d="M25.2,28.7L25.2,28.7L25.2,28.7z"/>
		<path clip-path="url(#SVGID_4_)" fill="#949699" d="M25.4,28.7L25.4,28.7L25.4,28.7z"/>
		<path clip-path="url(#SVGID_4_)" fill="#939598" d="M25.6,28.7L25.6,28.7L25.6,28.7z"/>
		<path clip-path="url(#SVGID_4_)" fill="#929597" d="M25.7,28.7L25.7,28.7L25.7,28.7z"/>
		<path clip-path="url(#SVGID_4_)" fill="#929496" d="M25.9,28.7L25.9,28.7L25.9,28.7z"/>
		<path clip-path="url(#SVGID_4_)" fill="#919396" d="M26.1,28.7L26.1,28.7L26.1,28.7z"/>
		<path clip-path="url(#SVGID_4_)" fill="#909295" d="M26.2,28.7L26.2,28.7L26.2,28.7z"/>
		<path clip-path="url(#SVGID_4_)" fill="#8F9194" d="M26.4,28.7L26.4,28.7L26.4,28.7z"/>
		<path clip-path="url(#SVGID_4_)" fill="#8F9193" d="M26.6,28.7L26.6,28.7L26.6,28.7z"/>
		<path clip-path="url(#SVGID_4_)" fill="#8E9093" d="M26.7,28.7L26.7,28.7L26.7,28.7z"/>
		<path clip-path="url(#SVGID_4_)" fill="#8D8F92" d="M26.9,28.7L26.9,28.7L26.9,28.7z"/>
		<path clip-path="url(#SVGID_4_)" fill="#8C8E91" d="M27.1,28.7L27.1,28.7L27.1,28.7z"/>
		<path clip-path="url(#SVGID_4_)" fill="#8C8E90" d="M27.2,28.7L27.2,28.7L27.2,28.7z"/>
		<path clip-path="url(#SVGID_4_)" fill="#8B8D90" d="M27.4,28.7L27.4,28.7L27.4,28.7z"/>
		<path clip-path="url(#SVGID_4_)" fill="#8A8C8F" d="M27.6,28.7L27.6,28.7L27.6,28.7z"/>
		<path clip-path="url(#SVGID_4_)" fill="#898B8E" d="M27.7,28.7L27.7,28.7L27.7,28.7z"/>
		<path clip-path="url(#SVGID_4_)" fill="#898B8D" d="M27.9,28.7L27.9,28.7L27.9,28.7z"/>
		<path clip-path="url(#SVGID_4_)" fill="#888A8D" d="M28.1,28.7L28.1,28.7L28.1,28.7z"/>
		<path clip-path="url(#SVGID_4_)" fill="#87898C" d="M28.2,28.7L28.2,28.7L28.2,28.7z"/>
		<path clip-path="url(#SVGID_4_)" fill="#86888B" d="M28.4,28.7L28.4,28.7L28.4,28.7z"/>
		<path clip-path="url(#SVGID_4_)" fill="#86888A" d="M28.6,28.7L28.6,28.7L28.6,28.7z"/>
		<path clip-path="url(#SVGID_4_)" fill="#85878A" d="M28.7,28.7L28.7,28.7L28.7,28.7z"/>
		<path clip-path="url(#SVGID_4_)" fill="#848689" d="M28.9,28.7L28.9,28.7L28.9,28.7z"/>
		<path clip-path="url(#SVGID_4_)" fill="#848588" d="M29.1,28.7L29.1,28.7L29.1,28.7z"/>
		<path clip-path="url(#SVGID_4_)" fill="#838587" d="M29.2,28.7L29.2,28.7L29.2,28.7z"/>
		<path clip-path="url(#SVGID_4_)" fill="#828486" d="M29.4,28.7L29.4,28.7L29.4,28.7z"/>
		<path clip-path="url(#SVGID_4_)" fill="#818386" d="M29.6,28.7L29.6,28.7L29.6,28.7z"/>
		<path clip-path="url(#SVGID_4_)" fill="#818285" d="M29.7,28.7L29.7,28.7L29.7,28.7z"/>
		<path clip-path="url(#SVGID_4_)" fill="#808284" d="M29.9,28.7L29.9,28.7L29.9,28.7z"/>
		<path clip-path="url(#SVGID_4_)" fill="#7F8183" d="M30.1,28.7L30.1,28.7L30.1,28.7z"/>
		<path clip-path="url(#SVGID_4_)" fill="#7E8083" d="M30.2,28.7L30.2,28.7L30.2,28.7z"/>
		<path clip-path="url(#SVGID_4_)" fill="#7E7F82" d="M30.4,28.7L30.4,28.7L30.4,28.7z"/>
		<path clip-path="url(#SVGID_4_)" fill="#7D7F81" d="M30.6,28.7L30.6,28.7L30.6,28.7z"/>
		<path clip-path="url(#SVGID_4_)" fill="#7C7E80" d="M30.7,28.7L30.7,28.7L30.7,28.7z"/>
		<path clip-path="url(#SVGID_4_)" fill="#7B7D80" d="M30.9,28.7L30.9,28.7L30.9,28.7z"/>
		<path clip-path="url(#SVGID_4_)" fill="#7B7C7F" d="M31.1,28.7L31.1,28.7L31.1,28.7z"/>
		<path clip-path="url(#SVGID_4_)" fill="#7A7C7E" d="M31.2,28.7L31.2,28.7L31.2,28.7z"/>
		<path clip-path="url(#SVGID_4_)" fill="#797B7D" d="M31.4,28.7L31.4,28.7L31.4,28.7z"/>
		<path clip-path="url(#SVGID_4_)" fill="#787A7D" d="M31.6,28.7L31.6,28.7L31.6,28.7z"/>
		<path clip-path="url(#SVGID_4_)" fill="#78797C" d="M31.7,28.7L31.7,28.7L31.7,28.7z"/>
		<path clip-path="url(#SVGID_4_)" fill="#77797B" d="M31.9,28.7L31.9,28.7L31.9,28.7z"/>
		<path clip-path="url(#SVGID_4_)" fill="#76787A" d="M32.1,28.7L32.1,28.7L32.1,28.7z"/>
		<path clip-path="url(#SVGID_4_)" fill="#75777A" d="M32.2,28.7L32.2,28.7L32.2,28.7z"/>
		<path clip-path="url(#SVGID_4_)" fill="#757679" d="M32.4,28.7L32.4,28.7L32.4,28.7z"/>
		<path clip-path="url(#SVGID_4_)" fill="#747578" d="M32.6,28.7L32.6,28.7L32.6,28.7z"/>
		<path clip-path="url(#SVGID_4_)" fill="#737577" d="M32.7,28.7L32.7,28.7L32.7,28.7z"/>
		<path clip-path="url(#SVGID_4_)" fill="#727476" d="M32.9,28.7L32.9,28.7L32.9,28.7z"/>
		<path clip-path="url(#SVGID_4_)" fill="#727376" d="M33.1,28.7L33.1,28.7L33.1,28.7z"/>
		<path clip-path="url(#SVGID_4_)" fill="#717275" d="M33.2,28.7L33.2,28.7L33.2,28.7z"/>
		<path clip-path="url(#SVGID_4_)" fill="#707274" d="M33.4,28.7L33.4,28.7L33.4,28.7z"/>
		<path clip-path="url(#SVGID_4_)" fill="#6F7173" d="M33.6,28.7L33.6,28.7L33.6,28.7z"/>
		<path clip-path="url(#SVGID_4_)" fill="#6E7072" d="M33.7,28.7L33.7,28.7L33.7,28.7z"/>
		<path clip-path="url(#SVGID_4_)" fill="#6E6F72" d="M33.9,28.7L33.9,28.7L33.9,28.7z"/>
		<path clip-path="url(#SVGID_4_)" fill="#6D6E71" d="M34.1,28.7L34.1,28.7L34.1,28.7z"/>
		<path clip-path="url(#SVGID_4_)" fill="#6C6E70" d="M34.2,28.7L34.2,28.7L34.2,28.7z"/>
		<path clip-path="url(#SVGID_4_)" fill="#6B6D6F" d="M34.4,28.7L34.4,28.7L34.4,28.7z"/>
		<path clip-path="url(#SVGID_4_)" fill="#6B6C6E" d="M34.6,28.7L34.6,28.7L34.6,28.7z"/>
		<path clip-path="url(#SVGID_4_)" fill="#6A6B6D" d="M34.7,28.7L34.7,28.7L34.7,28.7z"/>
		<path clip-path="url(#SVGID_4_)" fill="#696A6D" d="M34.9,28.7L34.9,28.7L34.9,28.7z"/>
		<path clip-path="url(#SVGID_4_)" fill="#68696C" d="M35.1,28.7L35.1,28.7L35.1,28.7z"/>
		<path clip-path="url(#SVGID_4_)" fill="#67696B" d="M35.2,28.7L35.2,28.7L35.2,28.7z"/>
		<path clip-path="url(#SVGID_4_)" fill="#67686A" d="M35.4,28.7L35.4,28.7L35.4,28.7z"/>
		<path clip-path="url(#SVGID_4_)" fill="#666769" d="M35.6,28.7L35.6,28.7L35.6,28.7z"/>
		<path clip-path="url(#SVGID_4_)" fill="#656668" d="M35.7,28.7L35.7,28.7L35.7,28.7z"/>
		<path clip-path="url(#SVGID_4_)" fill="#646568" d="M35.9,28.7L35.9,28.7L35.9,28.7z"/>
		<path clip-path="url(#SVGID_4_)" fill="#636467" d="M36.1,28.7L36.1,28.7L36.1,28.7z"/>
		<path clip-path="url(#SVGID_4_)" fill="#626466" d="M36.2,28.7L36.2,28.7L36.2,28.7z"/>
		<path clip-path="url(#SVGID_4_)" fill="#626365" d="M36.4,28.7L36.4,28.7L36.4,28.7z"/>
		<path clip-path="url(#SVGID_4_)" fill="#616264" d="M36.6,28.7L36.6,28.7L36.6,28.7z"/>
		<path clip-path="url(#SVGID_4_)" fill="#606163" d="M36.7,28.7L36.7,28.7L36.7,28.7z"/>
		<path clip-path="url(#SVGID_4_)" fill="#5F6062" d="M36.9,28.7L36.9,28.7L36.9,28.7z"/>
		<path clip-path="url(#SVGID_4_)" fill="#5E5F62" d="M37.1,28.7L37.1,28.7L37.1,28.7z"/>
		<path clip-path="url(#SVGID_4_)" fill="#5D5E61" d="M37.2,28.7L37.2,28.7L37.2,28.7z"/>
		<path clip-path="url(#SVGID_4_)" fill="#5D5E60" d="M37.4,28.7L37.4,28.7L37.4,28.7z"/>
		<path clip-path="url(#SVGID_4_)" fill="#5C5D5F" d="M37.6,28.7L37.6,28.7L37.6,28.7z"/>
		<path clip-path="url(#SVGID_4_)" fill="#5B5C5E" d="M37.7,28.7L37.7,28.7L37.7,28.7z"/>
		<path clip-path="url(#SVGID_4_)" fill="#5A5B5D" d="M37.9,28.7L37.9,28.7L37.9,28.7z"/>
		<path clip-path="url(#SVGID_4_)" fill="#595A5C" d="M38.1,28.7L38.1,28.7L38.1,28.7z"/>
		<path clip-path="url(#SVGID_4_)" fill="#58595B" d="M38.2,28.7L38.2,28.7L38.2,28.7z"/>
		<path clip-path="url(#SVGID_4_)" fill="#57585A" d="M38.4,28.7L38.4,28.7L38.4,28.7z"/>
		<path clip-path="url(#SVGID_4_)" fill="#575759" d="M38.6,28.7L38.6,28.7L38.6,28.7z"/>
		<path clip-path="url(#SVGID_4_)" fill="#565658" d="M38.7,28.7L38.7,28.7L38.7,28.7z"/>
		<path clip-path="url(#SVGID_4_)" fill="#555558" d="M38.9,28.7L38.9,28.7L38.9,28.7z"/>
		<path clip-path="url(#SVGID_4_)" fill="#545457" d="M39.1,28.7L39.1,28.7L39.1,28.7z"/>
		<path clip-path="url(#SVGID_4_)" fill="#535456" d="M39.2,28.7L39.2,28.7L39.2,28.7z"/>
		<path clip-path="url(#SVGID_4_)" fill="#525355" d="M39.4,28.7L39.4,28.7L39.4,28.7z"/>
		<path clip-path="url(#SVGID_4_)" fill="#515254" d="M39.6,28.7L39.6,28.7L39.6,28.7z"/>
		<path clip-path="url(#SVGID_4_)" fill="#505153" d="M39.7,28.7L39.7,28.7L39.7,28.7z"/>
		<path clip-path="url(#SVGID_4_)" fill="#4F5052" d="M39.9,28.7L39.9,28.7L39.9,28.7z"/>
		<path clip-path="url(#SVGID_4_)" fill="#4F4F51" d="M40.1,28.7L40.1,28.7L40.1,28.7z"/>
		<path clip-path="url(#SVGID_4_)" fill="#4E4E50" d="M40.2,28.7L40.2,28.7L40.2,28.7z"/>
		<path clip-path="url(#SVGID_4_)" fill="#4D4D4F" d="M40.4,28.7L40.4,28.7L40.4,28.7z"/>
		<path clip-path="url(#SVGID_4_)" fill="#4C4C4E" d="M40.6,28.7L40.6,28.7L40.6,28.7z"/>
		<path clip-path="url(#SVGID_4_)" fill="#4B4B4D" d="M40.7,28.7L40.7,28.7L40.7,28.7z"/>
		<path clip-path="url(#SVGID_4_)" fill="#4A4A4C" d="M40.9,28.7L40.9,28.7L40.9,28.7z"/>
		<path clip-path="url(#SVGID_4_)" fill="#49494B" d="M41.1,28.7L41.1,28.7L41.1,28.7z"/>
		<path clip-path="url(#SVGID_4_)" fill="#48484A" d="M41.2,28.7L41.2,28.7L41.2,28.7z"/>
		<path clip-path="url(#SVGID_4_)" fill="#474749" d="M41.4,28.7L41.4,28.7L41.4,28.7z"/>
		<path clip-path="url(#SVGID_4_)" fill="#464648" d="M41.6,28.7L41.6,28.7L41.6,28.7z"/>
		<path clip-path="url(#SVGID_4_)" fill="#454547" d="M41.7,28.7L41.7,28.7L41.7,28.7z"/>
		<path clip-path="url(#SVGID_4_)" fill="#444446" d="M41.9,28.7L41.9,28.7L41.9,28.7z"/>
		<path clip-path="url(#SVGID_4_)" fill="#434345" d="M42.1,28.7L42.1,28.7L42.1,28.7z"/>
		<path clip-path="url(#SVGID_4_)" fill="#424244" d="M42.2,28.7L42.2,28.7L42.2,28.7z"/>
		<path clip-path="url(#SVGID_4_)" fill="#414143" d="M42.4,28.7L42.4,28.7L42.4,28.7z"/>
		<path clip-path="url(#SVGID_4_)" fill="#404042" d="M42.6,28.7L42.6,28.7L42.6,28.7z"/>
		<path clip-path="url(#SVGID_4_)" fill="#3F3E40" d="M42.7,28.7L42.7,28.7L42.7,28.7z"/>
		<path clip-path="url(#SVGID_4_)" fill="#3D3D3E" d="M42.9,28.7L42.9,28.7L42.9,28.7z"/>
		<path clip-path="url(#SVGID_4_)" fill="#3B3B3D" d="M43.1,28.7L43.1,28.7L43.1,28.7z"/>
		<path clip-path="url(#SVGID_4_)" fill="#3A393B" d="M43.2,28.7L43.2,28.7L43.2,28.7z"/>
		<path clip-path="url(#SVGID_4_)" fill="#383739" d="M43.4,28.7L43.4,28.7L43.4,28.7z"/>
		<path clip-path="url(#SVGID_4_)" fill="#363537" d="M43.6,28.7L43.6,28.7L43.6,28.7z"/>
		<path clip-path="url(#SVGID_4_)" fill="#343335" d="M43.7,28.7L43.7,28.7L43.7,28.7z"/>
		<path clip-path="url(#SVGID_4_)" fill="#323133" d="M43.9,28.7L43.9,28.7L43.9,28.7z"/>
		<path clip-path="url(#SVGID_4_)" fill="#302F31" d="M44.1,28.7L44.1,28.7L44.1,28.7z"/>
		<path clip-path="url(#SVGID_4_)" fill="#2E2D2E" d="M44.2,28.7L44.2,28.7L44.2,28.7z"/>
		<path clip-path="url(#SVGID_4_)" fill="#2B2B2C" d="M44.4,28.7L44.4,28.7L44.4,28.7z"/>
		<path clip-path="url(#SVGID_4_)" fill="#29292A" d="M44.6,28.7L44.6,28.7L44.6,28.7z"/>
		<path clip-path="url(#SVGID_4_)" fill="#272728" d="M44.7,28.7L44.7,28.7L44.7,28.7z"/>
		<path clip-path="url(#SVGID_4_)" fill="#242425" d="M44.9,28.7L44.9,28.7L44.9,28.7z"/>
		<path clip-path="url(#SVGID_4_)" fill="#222223" d="M45.1,28.7L45.1,28.7L45.1,28.7z"/>
		<path clip-path="url(#SVGID_4_)" fill="#1F1F20" d="M45.2,28.7L45.2,28.7L45.2,28.7z"/>
		<path clip-path="url(#SVGID_4_)" fill="#1D1D1D" d="M45.4,28.7L45.4,28.7L45.4,28.7z"/>
		<path clip-path="url(#SVGID_4_)" fill="#1A1A1A" d="M45.6,28.7L45.6,28.7L45.6,28.7z"/>
		<path clip-path="url(#SVGID_4_)" fill="#171717" d="M45.7,28.7L45.7,28.7L45.7,28.7z"/>
		<path clip-path="url(#SVGID_4_)" fill="#141414" d="M45.9,28.7L45.9,28.7L45.9,28.7z"/>
		<path clip-path="url(#SVGID_4_)" fill="#101011" d="M46.1,28.7L46.1,28.7L46.1,28.7z"/>
		<path clip-path="url(#SVGID_4_)" fill="#0D0C0D" d="M46.2,28.7L46.2,28.7L46.2,28.7z"/>
		<path clip-path="url(#SVGID_4_)" fill="#080808" d="M46.4,28.7L46.4,28.7L46.4,28.7z"/>
		<path clip-path="url(#SVGID_4_)" fill="#040404" d="M46.6,28.7L46.6,28.7L46.6,28.7z"/>
		<path clip-path="url(#SVGID_4_)" d="M46.7,28.7L46.7,28.7L46.7,28.7z"/>
		<path clip-path="url(#SVGID_4_)" d="M46.7,28.7L46.7,28.7L46.7,28.7z"/>
	</g>
	<rect x="4.2" y="27.9" fill="#939598" width="42.5" height="1.5"/>
</g>
<g>
	<rect x="9.5" y="14.5" fill="#939598" width="1.5" height="28.3"/>
</g>
<g>
	<path fill="#939598" d="M17.1,42.9h-1.5v-6.3H4.2V35h11.4V6.7h31.9v29.8H17.1V42.9z M17.1,35H46V8.2H17.1V35z"/>
</g>
<g>
	<path fill="#939598" d="M35.3,43.6H3.5V13.8h30.4V7.4h1.5v6.3h11.4v1.5H35.3V43.6z M5,42.1h28.9V15.3H5V42.1z"/>
</g>
<g>
	<rect x="21.7" y="7.4" fill="#939598" width="1.5" height="35.4"/>
</g>
<g>
	<rect x="27.8" y="7.4" fill="#939598" width="1.5" height="35.4"/>
</g>
<g>
	<rect x="39.9" y="7.4" fill="#939598" width="1.5" height="28.3"/>
</g>
</svg>
