<?xml version="1.0" encoding="utf-8"?>
<!-- Generator: Adobe Illustrator 19.0.1, SVG Export Plug-In . SVG Version: 6.00 Build 0)  -->
<svg version="1.1" id="Layer_1" xmlns="http://www.w3.org/2000/svg" xmlns:xlink="http://www.w3.org/1999/xlink" x="0px" y="0px"
	 viewBox="0 0 50 50" enable-background="new 0 0 50 50" xml:space="preserve">
<g opacity="0">
	<rect fill="#FFFFFF" width="50" height="50"/>
</g>
<g>
	<path fill="#939598" d="M7.3,41.7c-2.4,0-4.3-1.9-4.3-4.3c0-2.4,1.9-4.3,4.3-4.3s4.3,1.9,4.3,4.3C11.6,39.8,9.7,41.7,7.3,41.7z
		 M7.3,34.6c-1.5,0-2.8,1.3-2.8,2.8c0,1.5,1.3,2.8,2.8,2.8s2.8-1.3,2.8-2.8C10.1,35.9,8.8,34.6,7.3,34.6z"/>
</g>
<g>
	<path fill="#939598" d="M7.3,27.5c-2.4,0-4.3-1.9-4.3-4.3c0-2.4,1.9-4.3,4.3-4.3s4.3,1.9,4.3,4.3C11.6,25.6,9.7,27.5,7.3,27.5z
		 M7.3,20.4c-1.5,0-2.8,1.3-2.8,2.8S5.7,26,7.3,26s2.8-1.3,2.8-2.8S8.8,20.4,7.3,20.4z"/>
</g>
<g>
	<path fill="#939598" d="M25,38.1c-2.4,0-4.3-1.9-4.3-4.3c0-2.4,1.9-4.3,4.3-4.3c2.4,0,4.3,1.9,4.3,4.3C29.3,36.2,27.4,38.1,25,38.1
		z M25,31.1c-1.5,0-2.8,1.3-2.8,2.8c0,1.5,1.3,2.8,2.8,2.8c1.5,0,2.8-1.3,2.8-2.8C27.8,32.3,26.5,31.1,25,31.1z"/>
</g>
<g>
	<path fill="#939598" d="M25,34.6c-2.4,0-4.3-1.9-4.3-4.3c0-2.4,1.9-4.3,4.3-4.3c2.4,0,4.3,1.9,4.3,4.3C29.3,32.7,27.4,34.6,25,34.6
		z M25,27.5c-1.5,0-2.8,1.3-2.8,2.8c0,1.5,1.3,2.8,2.8,2.8c1.5,0,2.8-1.3,2.8-2.8C27.8,28.8,26.5,27.5,25,27.5z"/>
</g>
<g>
	<path fill="#939598" d="M25,24c-2.4,0-4.3-1.9-4.3-4.3c0-2.4,1.9-4.3,4.3-4.3c2.4,0,4.3,1.9,4.3,4.3C29.3,22,27.4,24,25,24z
		 M25,16.9c-1.5,0-2.8,1.3-2.8,2.8s1.3,2.8,2.8,2.8c1.5,0,2.8-1.3,2.8-2.8S26.5,16.9,25,16.9z"/>
</g>
<g>
	<path fill="#939598" d="M42.7,38.1c-2.4,0-4.3-1.9-4.3-4.3c0-2.4,1.9-4.3,4.3-4.3c2.4,0,4.3,1.9,4.3,4.3
		C47,36.2,45.1,38.1,42.7,38.1z M42.7,31.1c-1.5,0-2.8,1.3-2.8,2.8c0,1.5,1.3,2.8,2.8,2.8c1.5,0,2.8-1.3,2.8-2.8
		C45.5,32.3,44.3,31.1,42.7,31.1z"/>
</g>
<g>
	<path fill="#939598" d="M42.7,16.9c-2.4,0-4.3-1.9-4.3-4.3s1.9-4.3,4.3-4.3c2.4,0,4.3,1.9,4.3,4.3S45.1,16.9,42.7,16.9z M42.7,9.8
		c-1.5,0-2.8,1.3-2.8,2.8s1.3,2.8,2.8,2.8c1.5,0,2.8-1.3,2.8-2.8S44.3,9.8,42.7,9.8z"/>
</g>
<g>
	<path fill="#939598" d="M42.7,13.3c-2.4,0-4.3-1.9-4.3-4.3s1.9-4.3,4.3-4.3C45.1,4.8,47,6.7,47,9S45.1,13.3,42.7,13.3z M42.7,6.3
		c-1.5,0-2.8,1.3-2.8,2.8s1.3,2.8,2.8,2.8c1.5,0,2.8-1.3,2.8-2.8S44.3,6.3,42.7,6.3z"/>
</g>
<g>
	<path fill="#939598" d="M42.7,27.5c-2.4,0-4.3-1.9-4.3-4.3c0-2.4,1.9-4.3,4.3-4.3c2.4,0,4.3,1.9,4.3,4.3
		C47,25.6,45.1,27.5,42.7,27.5z M42.7,20.4c-1.5,0-2.8,1.3-2.8,2.8s1.3,2.8,2.8,2.8c1.5,0,2.8-1.3,2.8-2.8S44.3,20.4,42.7,20.4z"/>
</g>
<g>
	<rect x="3.7" y="44" fill="#D1D3D4" width="42.5" height="1"/>
</g>
</svg>
