<?xml version="1.0" encoding="utf-8"?>
<!-- Generator: Adobe Illustrator 19.0.1, SVG Export Plug-In . SVG Version: 6.00 Build 0)  -->
<svg version="1.1" id="Layer_1" xmlns="http://www.w3.org/2000/svg" xmlns:xlink="http://www.w3.org/1999/xlink" x="0px" y="0px"
	 viewBox="0 0 50 50" enable-background="new 0 0 50 50" xml:space="preserve">
<g opacity="0">
	<rect fill="#FFFFFF" width="50" height="50"/>
</g>
<g>
	<rect x="4.2" y="8.7" fill="#E6E7E8" width="42.5" height="31.9"/>
</g>
<g>
	<path fill="#939598" d="M47.2,41.1H3.7V8.2h43.5V41.1z M4.7,40.1h41.5V9.2H4.7V40.1z"/>
</g>
<g>
	<ellipse fill="#D1D3D4" cx="25.5" cy="24.7" rx="15.9" ry="10.6"/>
	<path fill="#939598" d="M25.5,35.7c-9,0-16.3-4.9-16.3-11s7.3-11,16.3-11s16.3,4.9,16.3,11S34.5,35.7,25.5,35.7z M25.5,14.4
		c-8.6,0-15.6,4.6-15.6,10.3c0,5.7,7,10.3,15.6,10.3c8.6,0,15.6-4.6,15.6-10.3C41.1,19,34.1,14.4,25.5,14.4z"/>
</g>
<g>
	<ellipse fill="#BCBEC0" cx="25.5" cy="24.7" rx="12.4" ry="7.1"/>
	<path fill="#939598" d="M25.5,32.1c-7,0-12.8-3.3-12.8-7.5c0-4.1,5.7-7.5,12.8-7.5s12.8,3.3,12.8,7.5
		C38.3,28.8,32.5,32.1,25.5,32.1z M25.5,18c-6.6,0-12,3-12,6.7s5.4,6.7,12,6.7c6.6,0,12-3,12-6.7S32.1,18,25.5,18z"/>
</g>
<g>
	<ellipse fill="#A7A9AC" cx="25.5" cy="24.7" rx="8.9" ry="3.5"/>
	<path fill="#939598" d="M25.5,28.6c-5.2,0-9.2-1.7-9.2-3.9s4.1-3.9,9.2-3.9c5.2,0,9.2,1.7,9.2,3.9S30.7,28.6,25.5,28.6z M25.5,21.5
		c-5.1,0-8.5,1.6-8.5,3.2s3.4,3.2,8.5,3.2s8.5-1.6,8.5-3.2S30.6,21.5,25.5,21.5z"/>
</g>
</svg>
