<?xml version="1.0" encoding="utf-8"?>
<!-- Generator: Adobe Illustrator 19.0.1, SVG Export Plug-In . SVG Version: 6.00 Build 0)  -->
<svg version="1.1" id="Layer_1" xmlns="http://www.w3.org/2000/svg" xmlns:xlink="http://www.w3.org/1999/xlink" x="0px" y="0px"
	 viewBox="0 0 50 50" enable-background="new 0 0 50 50" xml:space="preserve">
<rect opacity="0" fill="#FFFFFF" width="50" height="50"/>
<g>
	<path fill="#939598" d="M26.1,7v8.9c4.9,0,8.9,4,8.9,8.9s-4,8.9-8.9,8.9c-2.6,0-4.8-1-6.6-2.9l0,0l-6.6,5.9
		c3.5,3.9,7.9,5.9,13.2,5.9c9.8,0,17.7-7.9,17.7-17.7S35.9,7,26.1,7z"/>
	<path fill="#D1D3D4" d="M19.5,30.7c-3.3-3.6-3-9.2,0.7-12.5c1.7-1.5,3.7-2.3,5.9-2.3V7c-4.5,0-8.5,1.5-11.9,4.6
		c-7.3,6.5-7.9,17.8-1.3,25L19.5,30.7L19.5,30.7z"/>
</g>
</svg>
