<?xml version="1.0" encoding="utf-8"?>
<!-- Generator: Adobe Illustrator 19.0.1, SVG Export Plug-In . SVG Version: 6.00 Build 0)  -->
<svg version="1.1" id="Layer_1" xmlns="http://www.w3.org/2000/svg" xmlns:xlink="http://www.w3.org/1999/xlink" x="0px" y="0px"
	 viewBox="0 0 50 50" enable-background="new 0 0 50 50" xml:space="preserve">
<rect opacity="0" fill="#FFFFFF" width="50" height="50"/>
<rect x="15.6" y="30.4" fill="#939598" width="7.1" height="7.1"/>
<rect x="15.6" y="21.5" fill="#939598" width="7.1" height="7.1"/>
<rect x="15.6" y="39.3" fill="#939598" width="7.1" height="7.1"/>
<rect x="3.8" y="39.3" fill="#939598" width="7.1" height="7.1"/>
<rect x="27.5" y="30.4" fill="#939598" width="7.1" height="7.1"/>
<rect x="27.5" y="39.3" fill="#939598" width="7.1" height="7.1"/>
<rect x="39.3" y="30.4" fill="#939598" width="7.1" height="7.1"/>
<rect x="39.3" y="12.7" fill="#939598" width="7.1" height="7.1"/>
<rect x="39.3" y="21.5" fill="#939598" width="7.1" height="7.1"/>
<rect x="39.3" y="39.3" fill="#939598" width="7.1" height="7.1"/>
<rect x="39.3" y="3.8" fill="#D1D3D4" width="7.1" height="7.1"/>
<rect x="3.8" y="21.5" fill="#D1D3D4" width="7.1" height="7.1"/>
<rect x="3.8" y="3.8" fill="#D1D3D4" width="7.1" height="7.1"/>
<rect x="3.8" y="12.7" fill="#D1D3D4" width="7.1" height="7.1"/>
<rect x="3.8" y="30.4" fill="#D1D3D4" width="7.1" height="7.1"/>
<rect x="15.6" y="3.8" fill="#D1D3D4" width="7.1" height="7.1"/>
<rect x="15.6" y="12.7" fill="#D1D3D4" width="7.1" height="7.1"/>
<rect x="27.5" y="21.5" fill="#D1D3D4" width="7.1" height="7.1"/>
<rect x="27.5" y="3.8" fill="#D1D3D4" width="7.1" height="7.1"/>
<rect x="27.5" y="12.7" fill="#D1D3D4" width="7.1" height="7.1"/>
</svg>
