<?xml version="1.0" encoding="utf-8"?>
<!-- Generator: Adobe Illustrator 19.0.1, SVG Export Plug-In . SVG Version: 6.00 Build 0)  -->
<svg version="1.1" id="Layer_1" xmlns="http://www.w3.org/2000/svg" xmlns:xlink="http://www.w3.org/1999/xlink" x="0px" y="0px"
	 viewBox="0 0 50 50" enable-background="new 0 0 50 50" xml:space="preserve">
<g opacity="0">
	<rect fill="#FFFFFF" width="50" height="50"/>
</g>
<g>
	<path fill="#939598" d="M38.9,37.6h-2c0-12.1-5.1-22-11.4-22v-2C33,13.6,38.9,24.1,38.9,37.6z"/>
</g>
<g>
	<path fill="#939598" d="M34.8,35.3h-2c0-9-3.3-16.5-7.3-16.5v-2C30.7,16.8,34.8,24.9,34.8,35.3z"/>
</g>
<g>
	<path fill="#939598" d="M43.1,40.1h-2c0-15.3-7-27.7-15.6-27.7v-2C35.2,10.4,43.1,23.7,43.1,40.1z"/>
</g>
<g>
	<path fill="#939598" d="M9.9,40.1h-2c0-16.4,7.9-29.7,17.6-29.7v2C16.9,12.4,9.9,24.8,9.9,40.1z"/>
</g>
<g>
	<path fill="#939598" d="M14.1,37.7h-2c0-13.5,5.9-24.1,13.4-24.1v2C19.2,15.6,14.1,25.5,14.1,37.7z"/>
</g>
<g>
	<path fill="#939598" d="M18.2,35.3h-2c0-10.4,4.1-18.5,9.3-18.5v2C21.5,18.8,18.2,26.3,18.2,35.3z"/>
</g>
<g>
	<rect x="25" y="5" fill="#D1D3D4" width="1" height="22.3"/>
</g>
<g>
	<rect x="26.7" y="37.2" transform="matrix(0.866 0.5 -0.5 0.866 23.9328 -13.9032)" fill="#D1D3D4" width="22.3" height="1"/>
</g>
<g>
	
		<rect x="12.6" y="26.5" transform="matrix(0.5003 0.8658 -0.8658 0.5003 39.1696 7.5394)" fill="#D1D3D4" width="1" height="22.3"/>
</g>
</svg>
