<?xml version="1.0" encoding="utf-8"?>
<!-- Generator: Adobe Illustrator 19.1.0, SVG Export Plug-In . SVG Version: 6.00 Build 0)  -->
<svg version="1.1" id="Layer_1" xmlns="http://www.w3.org/2000/svg" xmlns:xlink="http://www.w3.org/1999/xlink" x="0px" y="0px"
	 viewBox="0 0 50 50" style="enable-background:new 0 0 50 50;" xml:space="preserve">
<style type="text/css">
	.st0{opacity:0;fill:#FFFFFF;}
	.st1{fill:none;stroke:#939598;stroke-width:1.25;stroke-miterlimit:10;}
	.st2{fill:none;stroke:#D1D3D4;stroke-width:1.25;stroke-miterlimit:10;}
	.st3{fill:none;stroke:#D1D3D4;stroke-width:0.75;stroke-miterlimit:10;}
	.st4{fill:none;stroke:#939598;stroke-width:0.75;stroke-miterlimit:10;}
</style>
<rect class="st0" width="50" height="50"/>
<line class="st1" x1="7.1" y1="28.3" x2="10.6" y2="28.3"/>
<line class="st1" x1="42.5" y1="7.1" x2="46.1" y2="7.1"/>
<line class="st1" x1="30.7" y1="21.3" x2="34.3" y2="21.3"/>
<line class="st1" x1="18.9" y1="14.2" x2="22.4" y2="14.2"/>
<line class="st2" x1="3.5" y1="31.9" x2="7.1" y2="31.9"/>
<line class="st2" x1="15.4" y1="21.3" x2="18.9" y2="21.3"/>
<line class="st2" x1="27.2" y1="17.7" x2="30.7" y2="17.7"/>
<line class="st2" x1="39" y1="14.2" x2="42.5" y2="14.2"/>
<line class="st3" x1="5.3" y1="42.5" x2="5.3" y2="31.9"/>
<line class="st3" x1="17.1" y1="42.5" x2="17.1" y2="21.3"/>
<line class="st3" x1="28.9" y1="42.5" x2="28.9" y2="17.7"/>
<line class="st3" x1="40.8" y1="42.5" x2="40.8" y2="14.2"/>
<line class="st4" x1="8.9" y1="42.5" x2="8.9" y2="28.3"/>
<line class="st4" x1="20.7" y1="42.5" x2="20.7" y2="14.2"/>
<line class="st4" x1="32.5" y1="42.5" x2="32.5" y2="21.3"/>
<line class="st4" x1="44.3" y1="42.5" x2="44.3" y2="7.1"/>
</svg>
