<?xml version="1.0" encoding="utf-8"?>
<!-- Generator: Adobe Illustrator 19.0.1, SVG Export Plug-In . SVG Version: 6.00 Build 0)  -->
<svg version="1.1" id="Layer_1" xmlns="http://www.w3.org/2000/svg" xmlns:xlink="http://www.w3.org/1999/xlink" x="0px" y="0px"
	 viewBox="0 0 50 50" enable-background="new 0 0 50 50" xml:space="preserve">
<g opacity="0">
	<rect fill="#FFFFFF" width="50" height="50"/>
</g>
<g>
	<rect x="4.1" y="35.1" fill="#129E77" width="10.6" height="7.1"/>
	<path fill="#FFFFFF" d="M15.2,42.7H3.6v-8.1h11.6V42.7z M4.6,41.7h9.6v-6.1H4.6V41.7z"/>
</g>
<g>
	<rect x="14.7" y="28" fill="#129E77" width="17.7" height="14.2"/>
	<path fill="#FFFFFF" d="M32.9,42.7H14.2V27.5h18.7V42.7z M15.2,41.7h16.7V28.5H15.2V41.7z"/>
</g>
<g>
	<rect x="32.4" y="38.7" fill="#129E77" width="14.2" height="3.5"/>
	<path fill="#FFFFFF" d="M47.1,42.7H31.9v-4.5h15.2V42.7z M32.9,41.7h13.2v-2.5H32.9V41.7z"/>
</g>
<g>
	<rect x="4.1" y="24.5" fill="#D76127" width="10.6" height="10.6"/>
	<path fill="#FFFFFF" d="M15.2,35.6H3.6V24h11.6V35.6z M4.6,34.6h9.6V25H4.6V34.6z"/>
</g>
<g>
	<rect x="14.7" y="17.4" fill="#D76127" width="17.7" height="10.6"/>
	<path fill="#FFFFFF" d="M32.9,28.5H14.2V16.9h18.7V28.5z M15.2,27.5h16.7v-9.6H15.2V27.5z"/>
</g>
<g>
	<rect x="32.4" y="13.9" fill="#D76127" width="14.2" height="24.8"/>
	<path fill="#FFFFFF" d="M47.1,39.2H31.9V13.4h15.2V39.2z M32.9,38.2h13.2V14.4H32.9V38.2z"/>
</g>
<g>
	<rect x="4.1" y="6.8" fill="#7570B3" width="10.6" height="17.7"/>
	<path fill="#FFFFFF" d="M15.2,25H3.6V6.3h11.6V25z M4.6,24h9.6V7.3H4.6V24z"/>
</g>
<g>
	<rect x="14.7" y="6.8" fill="#7570B3" width="17.7" height="10.6"/>
	<path fill="#FFFFFF" d="M32.9,17.9H14.2V6.3h18.7V17.9z M15.2,16.9h16.7V7.3H15.2V16.9z"/>
</g>
<g>
	<rect x="32.4" y="6.8" fill="#7570B3" width="14.2" height="7.1"/>
	<path fill="#FFFFFF" d="M47.1,14.4H31.9V6.3h15.2V14.4z M32.9,13.4h13.2V7.3H32.9V13.4z"/>
</g>
</svg>
