<?xml version="1.0" encoding="utf-8"?>
<!-- Generator: Adobe Illustrator 19.0.1, SVG Export Plug-In . SVG Version: 6.00 Build 0)  -->
<svg version="1.1" id="Layer_1" xmlns="http://www.w3.org/2000/svg" xmlns:xlink="http://www.w3.org/1999/xlink" x="0px" y="0px"
	 viewBox="0 0 50 50" enable-background="new 0 0 50 50" xml:space="preserve">
<g opacity="0">
	<rect fill="#FFFFFF" width="50" height="50"/>
</g>
<g>
	<rect x="3.9" y="7.3" fill="#D1D3D4" width="1" height="35.4"/>
</g>
<g>
	<rect x="46.4" y="7.3" fill="#D1D3D4" width="1" height="35.4"/>
</g>
<g>
	<rect x="18" y="7.3" fill="#D1D3D4" width="1" height="35.4"/>
</g>
<g>
	<rect x="32.2" y="7.3" fill="#D1D3D4" width="1" height="35.4"/>
</g>
<g>
	<polygon fill="#939598" points="32.9,36.7 18.5,26 4.8,36.3 3.9,35.1 18.5,24.1 32.5,34.6 46.2,14 47.5,14.8 	"/>
</g>
<g>
	<polygon fill="#939598" points="46.2,36.1 32.3,15.1 18.8,15.1 4.8,25.6 3.9,24.4 18.3,13.6 33.1,13.6 47.5,35.2 	"/>
</g>
<g>
	<polygon fill="#939598" points="18.3,36.7 3.7,14.8 5,14 18.7,34.6 32.4,24.3 46.9,24.3 46.9,25.8 32.9,25.8 	"/>
</g>
</svg>
