<?xml version="1.0" encoding="utf-8"?>
<!-- Generator: Adobe Illustrator 19.0.1, SVG Export Plug-In . SVG Version: 6.00 Build 0)  -->
<svg version="1.1" id="Layer_1" xmlns="http://www.w3.org/2000/svg" xmlns:xlink="http://www.w3.org/1999/xlink" x="0px" y="0px"
	 viewBox="0 0 50 50" enable-background="new 0 0 50 50" xml:space="preserve">
<g opacity="0">
	<rect fill="#FFFFFF" width="50" height="50"/>
</g>
<g>
	<rect x="4.2" y="7.2" fill="#939598" width="14.2" height="35.4"/>
	<path fill="#FFFFFF" d="M18.9,43.1H3.7V6.7h15.2V43.1z M4.7,42.1h13.2V7.7H4.7V42.1z"/>
</g>
<g>
	<rect x="18.4" y="7.2" fill="#939598" width="14.2" height="21.3"/>
	<path fill="#FFFFFF" d="M33.1,28.9H17.9V6.7h15.2V28.9z M18.9,27.9h13.2V7.7H18.9V27.9z"/>
</g>
<g>
	<rect x="18.4" y="28.4" fill="#B1B3B6" width="14.2" height="14.2"/>
	<path fill="#FFFFFF" d="M33.1,43.1H17.9V27.9h15.2V43.1z M18.9,42.1h13.2V28.9H18.9V42.1z"/>
</g>
<g>
	<rect x="32.6" y="7.2" fill="#939598" width="14.2" height="7.1"/>
	<path fill="#FFFFFF" d="M47.2,14.8H32.1V6.7h15.2V14.8z M33.1,13.8h13.2V7.7H33.1V13.8z"/>
</g>
<g>
	<rect x="32.6" y="14" fill="#B1B3B6" width="14.2" height="3.5"/>
	<path fill="#FFFFFF" d="M47.2,18.1H32.1v-4.5h15.2V18.1z M33.1,17.1h13.2v-2.5H33.1V17.1z"/>
</g>
<g>
	<rect x="32.6" y="28.4" fill="#939598" width="14.2" height="7.1"/>
	<path fill="#FFFFFF" d="M47.2,36H32.1v-8.1h15.2V36z M33.1,35h13.2v-6.1H33.1V35z"/>
</g>
<g>
	<rect x="32.6" y="17.8" fill="#D1D3D4" width="14.2" height="3.5"/>
	<path fill="#FFFFFF" d="M47.2,21.8H32.1v-4.5h15.2V21.8z M33.1,20.8h13.2v-2.5H33.1V20.8z"/>
</g>
<g>
	<rect x="32.6" y="35.5" fill="#B1B3B6" width="14.2" height="3.5"/>
	<path fill="#FFFFFF" d="M47.2,39.6H32.1V35h15.2V39.6z M33.1,38.6h13.2V36H33.1V38.6z"/>
</g>
</svg>
