<?xml version="1.0" encoding="utf-8"?>
<!-- Generator: Adobe Illustrator 19.0.1, SVG Export Plug-In . SVG Version: 6.00 Build 0)  -->
<svg version="1.1" id="Layer_1" xmlns="http://www.w3.org/2000/svg" xmlns:xlink="http://www.w3.org/1999/xlink" x="0px" y="0px"
	 viewBox="0 0 50 50" enable-background="new 0 0 50 50" xml:space="preserve">
<rect opacity="0" fill="#FFFFFF" width="50" height="50"/>
<g>
	<path fill="#D76127" d="M32.7,29.8c-1.6,1.6-3.8,2.6-6.3,2.6s-4.7-1-6.3-2.6L14,36C20.9,43,32.1,43,39,36L32.7,29.8z"/>
	<path fill="#7570B3" d="M26.5,14.6V5.8c-4.9,0-9.1,1.7-12.5,5.2C7,17.9,7,29.1,14,36l6.3-6.3c-1.6-1.6-2.6-3.8-2.6-6.3
		C17.6,18.6,21.6,14.6,26.5,14.6z"/>
	<path fill="#189E77" d="M26.5,5.8v8.9c4.9,0,8.9,4,8.9,8.9c0,2.4-1,4.7-2.6,6.3L39,36c3.5-3.5,5.2-7.6,5.2-12.5
		C44.2,13.7,36.3,5.8,26.5,5.8z"/>
</g>
</svg>
