<?xml version="1.0" encoding="utf-8"?>
<!-- Generator: Adobe Illustrator 19.0.1, SVG Export Plug-In . SVG Version: 6.00 Build 0)  -->
<svg version="1.1" id="Layer_1" xmlns="http://www.w3.org/2000/svg" xmlns:xlink="http://www.w3.org/1999/xlink" x="0px" y="0px"
	 viewBox="0 0 50 50" enable-background="new 0 0 50 50" xml:space="preserve">
<g opacity="0">
	<rect fill="#FFFFFF" width="50" height="50"/>
</g>
<g>
	<rect x="4.4" y="7.2" fill="#939598" width="28.3" height="21.3"/>
	<path fill="#FFFFFF" d="M33.2,28.9H3.9V6.7h29.3V28.9z M4.9,27.9h27.3V7.7H4.9V27.9z"/>
</g>
<g>
	<rect x="32.7" y="7.2" fill="#939598" width="14.2" height="21.3"/>
	<path fill="#FFFFFF" d="M47.4,28.9H32.2V6.7h15.2V28.9z M33.2,27.9h13.2V7.7H33.2V27.9z"/>
</g>
<g>
	<rect x="4.4" y="28.4" fill="#B1B3B6" width="17.7" height="14.2"/>
	<path fill="#FFFFFF" d="M22.6,43.1H3.9V27.9h18.7V43.1z M4.9,42.1h16.7V28.9H4.9V42.1z"/>
</g>
<g>
	<rect x="22.1" y="28.4" fill="#D1D3D4" width="24.8" height="7.1"/>
	<path fill="#FFFFFF" d="M47.4,36H21.6v-8.1h25.8V36z M22.6,35h23.8v-6.1H22.6V35z"/>
</g>
<g>
	<rect x="22.1" y="35.5" fill="#D1D3D4" width="17.7" height="7.1"/>
	<path fill="#FFFFFF" d="M40.3,43.1H21.6V35h18.7V43.1z M22.6,42.1h16.7V36H22.6V42.1z"/>
</g>
<g>
	<rect x="39.8" y="35.5" fill="#D1D3D4" width="7.1" height="7.1"/>
	<path fill="#FFFFFF" d="M47.4,43.1h-8.1V35h8.1V43.1z M40.3,42.1h6.1V36h-6.1V42.1z"/>
</g>
</svg>
